<?xml version="1.0" standalone="no"?>
<!DOCTYPE svg PUBLIC "-//W3C//DTD SVG 20010904//EN"
 "http://www.w3.org/TR/2001/REC-SVG-20010904/DTD/svg10.dtd">
<svg version="1.0" xmlns="http://www.w3.org/2000/svg"
 width="4177.000000pt" height="4177.000000pt" viewBox="0 0 4177.000000 4177.000000"
 preserveAspectRatio="xMidYMid meet">
<metadata>
Created by potrace 1.14, written by Peter Selinger 2001-2017
</metadata>
<g transform="translate(0.000000,4177.000000) scale(0.100000,-0.100000)"
fill="#000000" stroke="none">
<path d="M7762 37948 c-10 -13 -817 -1632 -925 -1858 -30 -63 -94 -196 -142
-295 -87 -179 -193 -401 -244 -505 -14 -30 -26 -57 -27 -60 0 -3 -33 -72 -73
-155 -40 -82 -91 -187 -112 -232 -22 -46 -56 -120 -78 -165 -21 -46 -59 -126
-84 -178 -24 -52 -59 -126 -77 -165 -18 -38 -66 -139 -106 -224 -41 -84 -74
-154 -74 -156 0 -5 -129 -279 -144 -305 -8 -14 -15 -28 -15 -32 -1 -5 -23 -54
-50 -110 -26 -57 -61 -130 -76 -163 -47 -102 -105 -229 -120 -260 -11 -27 -67
-147 -113 -245 -9 -19 -17 -37 -18 -40 0 -3 -19 -43 -41 -90 -22 -47 -52 -111
-67 -142 -64 -141 -80 -177 -111 -243 -18 -38 -42 -92 -55 -120 -12 -27 -42
-92 -66 -143 -24 -52 -44 -95 -44 -97 0 -2 -15 -36 -34 -77 -18 -40 -44 -95
-56 -123 -12 -27 -36 -79 -52 -115 -61 -134 -80 -176 -93 -205 -7 -16 -27 -59
-43 -95 -36 -79 -68 -150 -94 -210 -11 -25 -30 -65 -42 -90 -13 -25 -23 -48
-24 -53 -1 -4 -17 -41 -37 -82 -19 -42 -35 -78 -35 -80 0 -3 -20 -48 -45 -99
-25 -52 -45 -97 -45 -100 0 -2 -20 -47 -45 -100 -25 -53 -45 -99 -45 -101 0
-2 -18 -43 -41 -92 -22 -48 -52 -114 -65 -146 -14 -32 -37 -86 -53 -120 -29
-64 -41 -90 -106 -237 -21 -47 -53 -119 -72 -160 -40 -87 -55 -121 -58 -135
-2 -5 -18 -44 -37 -85 -66 -141 -88 -191 -88 -196 0 -2 -15 -37 -34 -77 -18
-40 -40 -88 -49 -107 -8 -19 -25 -57 -37 -85 -12 -27 -28 -63 -35 -80 -7 -16
-27 -61 -44 -98 -17 -38 -31 -70 -31 -72 0 -2 -16 -39 -35 -82 -81 -178 -99
-219 -192 -433 -46 -107 -88 -204 -93 -215 -10 -22 -24 -54 -95 -220 -26 -60
-58 -132 -70 -160 -12 -27 -44 -99 -70 -160 -26 -60 -55 -128 -65 -150 -10
-22 -32 -74 -50 -115 -17 -41 -42 -99 -56 -128 -13 -29 -24 -55 -24 -57 0 -2
-11 -28 -24 -57 -13 -29 -38 -87 -56 -128 -17 -41 -40 -93 -50 -115 -9 -22
-24 -56 -33 -75 -17 -38 -211 -494 -234 -550 -8 -19 -23 -54 -34 -77 -10 -24
-19 -45 -19 -47 0 -3 -14 -34 -30 -69 -17 -36 -30 -68 -30 -71 0 -5 -26 -64
-72 -166 -11 -25 -26 -61 -33 -80 -12 -35 -50 -121 -65 -151 -10 -19 -74 -172
-75 -179 -1 -3 -9 -20 -18 -37 -10 -18 -15 -33 -11 -33 3 0 0 -10 -8 -22 -8
-13 -34 -70 -58 -128 -23 -58 -53 -127 -65 -155 -12 -27 -48 -113 -80 -190
-32 -77 -68 -164 -81 -193 -13 -29 -24 -55 -24 -58 0 -3 -7 -22 -16 -42 -9
-21 -25 -55 -35 -77 -30 -69 -131 -309 -133 -320 -1 -5 -10 -28 -20 -50 -10
-22 -22 -49 -26 -60 -5 -11 -18 -40 -28 -65 -11 -25 -43 -101 -72 -170 -28
-69 -57 -138 -65 -155 -7 -16 -25 -59 -40 -95 -15 -36 -33 -78 -40 -95 -8 -16
-30 -70 -50 -120 -21 -49 -44 -106 -52 -125 -9 -19 -22 -51 -30 -70 -8 -19
-18 -44 -23 -55 -5 -11 -21 -49 -35 -85 -14 -36 -30 -75 -35 -87 -6 -13 -14
-33 -19 -45 -5 -13 -21 -50 -35 -83 -14 -33 -53 -127 -86 -210 -34 -82 -67
-163 -75 -180 -20 -44 -66 -158 -69 -170 -1 -5 -10 -28 -20 -50 -10 -22 -42
-101 -72 -175 -31 -74 -64 -154 -75 -177 -10 -24 -19 -46 -19 -49 0 -3 -6 -20
-14 -37 -8 -18 -47 -111 -86 -207 -40 -96 -80 -194 -91 -217 -10 -24 -19 -45
-19 -48 0 -4 -9 -25 -19 -49 -11 -23 -29 -67 -41 -97 -11 -30 -27 -67 -34 -84
-8 -16 -28 -66 -46 -110 -18 -44 -38 -93 -45 -110 -42 -97 -43 -101 -30 -131
11 -26 38 -89 65 -149 5 -11 23 -54 41 -95 37 -89 65 -153 85 -197 8 -17 14
-33 14 -36 0 -5 12 -33 70 -162 5 -11 50 -117 100 -235 51 -118 99 -231 107
-250 9 -19 17 -37 18 -40 1 -3 7 -18 13 -33 7 -16 12 -30 12 -32 0 -2 14 -34
31 -72 17 -37 37 -82 45 -100 8 -17 14 -33 14 -36 0 -3 14 -36 32 -74 17 -37
32 -72 33 -78 2 -5 14 -36 29 -67 14 -31 26 -59 26 -62 0 -3 13 -33 29 -68 17
-35 42 -92 57 -128 14 -36 34 -83 44 -105 10 -22 64 -146 120 -275 56 -129
120 -274 141 -323 21 -48 39 -89 39 -91 0 -3 14 -35 31 -73 17 -37 37 -83 45
-100 28 -66 43 -99 68 -156 14 -32 26 -59 26 -62 0 -2 13 -33 30 -68 16 -36
30 -68 30 -71 0 -3 13 -33 29 -68 30 -65 73 -159 76 -168 6 -17 244 -564 285
-655 12 -27 31 -68 40 -90 10 -22 30 -66 44 -98 14 -31 26 -59 25 -62 0 -3 7
-18 15 -33 8 -15 65 -142 127 -282 62 -140 123 -280 137 -310 13 -30 34 -77
47 -105 12 -27 44 -99 70 -160 26 -60 51 -114 55 -120 4 -5 14 -28 22 -50 9
-22 28 -67 43 -100 15 -33 33 -73 40 -90 47 -106 160 -358 180 -400 12 -27 33
-72 45 -100 13 -27 36 -78 51 -113 16 -34 29 -64 29 -66 0 -2 20 -46 44 -97
51 -111 82 -181 84 -192 1 -4 8 -20 16 -35 8 -15 27 -54 41 -87 35 -77 62
-138 91 -200 12 -27 41 -90 63 -138 23 -49 41 -90 41 -92 0 -2 18 -43 41 -92
22 -48 46 -101 54 -118 7 -16 30 -66 51 -110 21 -44 38 -82 39 -85 3 -10 24
-57 58 -130 33 -72 57 -125 107 -235 25 -54 72 -158 113 -245 14 -30 36 -80
50 -110 14 -30 40 -89 60 -130 19 -41 51 -113 72 -160 21 -47 55 -121 77 -164
21 -44 38 -83 38 -88 0 -6 9 -23 21 -39 11 -16 18 -29 15 -29 -3 0 3 -17 13
-38 11 -20 33 -66 49 -102 16 -36 45 -99 65 -140 84 -180 118 -255 117 -255
-1 0 10 -22 23 -50 14 -27 39 -79 55 -115 16 -36 49 -105 72 -155 23 -49 55
-118 70 -151 16 -34 47 -101 70 -149 23 -48 54 -115 70 -149 15 -33 51 -110
80 -171 29 -60 70 -147 91 -192 22 -46 57 -121 79 -168 96 -205 120 -255 163
-345 25 -52 63 -133 85 -180 22 -47 70 -148 107 -225 37 -77 86 -180 110 -230
49 -105 122 -256 210 -440 35 -71 93 -193 130 -270 182 -378 340 -702 581
-1193 101 -205 183 -374 182 -375 -1 -3 813 -1619 905 -1797 47 -91 108 -208
135 -260 65 -128 183 -353 245 -470 28 -52 65 -124 84 -160 18 -36 33 -59 33
-51 0 14 -353 1080 -370 1116 -5 11 -32 88 -59 170 -73 218 -180 525 -186 536
-4 5 -8 19 -10 31 -3 13 -11 39 -19 58 -8 19 -35 96 -61 170 -26 74 -57 164
-70 200 -13 36 -40 112 -60 170 -20 58 -48 137 -63 175 -14 39 -27 72 -27 75
0 3 -8 25 -17 50 -9 25 -30 86 -48 135 -17 50 -35 99 -40 110 -4 11 -34 92
-65 180 -78 218 -122 341 -144 400 -11 28 -31 84 -46 125 -14 41 -33 91 -40
110 -8 19 -44 118 -80 220 -37 102 -70 194 -75 205 -4 11 -39 103 -76 205 -37
102 -71 196 -77 210 -6 14 -11 30 -13 35 -1 6 -14 39 -27 75 -81 219 -142 383
-164 440 -14 36 -27 75 -30 88 -3 12 -9 25 -14 28 -5 3 -9 12 -9 21 0 8 -6 29
-14 46 -8 18 -26 66 -41 107 -66 181 -76 206 -84 225 -6 11 -13 31 -17 44 -3
13 -13 40 -22 60 -9 20 -17 41 -18 46 -4 17 -53 149 -63 170 -5 11 -37 94 -71
185 -34 91 -66 176 -72 190 -5 14 -29 77 -53 140 -24 63 -49 129 -56 145 -6
17 -13 35 -15 40 -1 6 -11 33 -22 60 -11 28 -34 88 -51 135 -17 47 -36 94 -41
105 -5 11 -50 128 -100 260 -50 132 -94 249 -99 260 -5 11 -23 58 -41 105 -17
47 -40 105 -50 130 -10 25 -37 95 -60 155 -23 61 -46 119 -50 130 -5 11 -48
121 -96 245 -47 124 -91 236 -97 250 -5 14 -11 30 -13 35 -1 6 -30 80 -64 165
-34 85 -72 182 -85 215 -12 33 -26 69 -30 80 -5 11 -9 22 -10 25 -1 3 -5 14
-10 25 -4 11 -17 43 -28 70 -10 28 -24 61 -30 75 -6 14 -11 27 -11 30 -2 9
-126 324 -146 370 -10 25 -40 99 -65 165 -25 66 -52 132 -61 148 -8 15 -13 27
-10 27 3 0 -4 21 -15 47 -11 27 -25 58 -30 71 -5 12 -13 32 -18 45 -5 12 -143
357 -306 767 -163 410 -306 764 -316 787 -10 23 -19 44 -19 48 0 5 -65 165
-122 300 -11 28 -24 59 -29 70 -5 11 -22 56 -40 100 -17 44 -37 94 -44 110 -7
17 -57 138 -110 270 -54 132 -108 267 -122 300 -13 33 -28 69 -33 80 -5 11
-43 106 -85 210 -42 105 -82 204 -90 220 -7 17 -29 71 -49 120 -21 50 -41 99
-46 110 -29 67 -70 164 -70 168 0 3 -10 27 -22 54 -12 26 -22 50 -22 53 -3 16
-50 127 -58 135 -4 5 -8 15 -8 22 0 7 -11 36 -25 65 -13 29 -34 78 -45 108
-12 30 -28 71 -37 90 -45 104 -113 269 -113 275 0 3 -9 24 -19 48 -11 23 -63
148 -117 277 -53 129 -101 241 -108 249 -6 8 -10 16 -9 17 3 5 -5 28 -33 94
-12 30 -48 116 -79 190 -58 139 -80 190 -95 225 -5 11 -37 88 -71 170 -34 83
-72 173 -85 202 -13 28 -24 54 -24 57 0 3 -11 29 -24 58 -13 29 -52 121 -86
203 -34 83 -65 155 -68 160 -4 6 -7 15 -8 20 -1 6 -16 44 -34 85 l-31 75 106
260 c59 143 108 265 109 270 2 6 12 30 23 55 11 25 24 56 28 70 4 14 17 45 27
70 31 69 42 95 97 235 29 72 56 139 61 150 15 32 151 369 154 380 2 6 8 21 14
35 44 104 94 227 96 235 1 6 12 32 24 59 12 27 22 52 22 56 0 4 6 20 14 36 8
16 49 117 91 224 42 107 83 209 89 225 19 45 61 149 62 155 1 7 23 62 34 85 5
11 70 175 146 365 75 190 143 360 151 379 8 18 16 39 17 45 1 6 12 33 24 60
12 27 22 53 22 57 0 5 4 17 10 27 5 9 66 161 135 337 70 176 130 329 135 340
11 24 160 406 164 420 1 6 8 21 14 35 6 14 27 68 47 120 47 122 104 267 120
305 7 17 38 98 70 180 31 83 65 168 75 190 15 34 30 75 35 95 1 3 7 19 14 35
23 56 78 199 136 350 31 83 61 159 65 170 32 82 44 114 55 140 7 17 16 41 20
55 4 14 13 39 20 55 7 17 31 77 53 135 22 58 43 114 48 125 4 11 8 22 9 25 1
3 5 14 10 25 43 105 54 135 65 170 7 22 20 50 28 63 8 12 11 22 8 22 -4 0 0
14 9 30 9 17 13 30 9 30 -4 0 -1 6 5 14 7 8 16 27 21 43 5 15 34 93 65 173 31
80 72 188 91 240 20 52 39 104 44 115 5 11 19 47 30 80 12 33 25 69 30 80 12
26 111 287 114 300 2 6 6 17 9 25 13 31 79 205 81 215 2 6 8 24 15 40 19 48
65 170 67 175 2 9 16 44 30 77 8 17 14 36 14 42 0 6 4 19 10 29 9 15 187 490
194 517 2 6 9 24 15 40 7 17 14 35 15 40 1 6 10 27 19 49 9 21 17 44 17 51 0
6 3 15 7 19 4 3 8 12 9 19 3 11 97 267 129 347 7 19 32 87 55 150 23 63 44
122 47 130 4 8 7 17 8 20 1 3 7 18 13 33 7 16 20 52 29 80 9 29 19 57 23 62 6
8 39 99 45 125 2 8 16 43 25 65 5 11 29 77 54 147 42 117 62 171 82 223 4 11
8 22 9 25 1 3 4 12 7 20 23 61 43 116 44 120 0 3 5 16 11 30 6 14 18 45 26 70
8 25 39 108 67 185 29 77 53 145 54 150 2 6 7 21 13 35 6 14 20 52 31 85 11
33 37 105 57 160 20 55 52 145 72 200 19 55 41 114 48 130 7 17 16 41 19 55 4
14 13 41 21 60 13 33 37 101 106 297 31 86 34 98 39 118 1 6 5 15 10 20 4 6
13 28 19 50 7 22 16 49 21 60 4 11 25 67 45 125 20 58 47 134 60 170 20 55 35
100 40 120 1 3 5 12 8 20 4 8 31 85 61 170 30 85 59 167 65 183 6 15 8 27 5
27 -4 0 -2 6 3 13 6 6 29 66 51 132 23 66 52 152 66 190 63 178 158 451 159
460 2 6 6 15 9 21 4 6 9 21 12 35 3 13 14 49 26 79 12 30 22 60 24 65 1 6 10
35 21 65 10 30 18 57 17 60 0 3 3 10 7 15 5 6 12 24 16 40 10 36 10 36 18 55
10 22 67 192 72 212 2 9 9 27 16 40 7 13 11 23 10 23 -3 0 -1 4 29 92 11 34
23 70 26 80 2 10 112 339 243 731 131 391 237 712 235 712 -2 0 6 24 17 53 11
28 20 53 20 54 0 2 1 8 4 15 2 7 18 58 36 113 17 55 42 134 56 175 14 41 26
80 28 85 1 6 4 17 7 25 5 13 40 127 43 140 1 3 4 12 8 20 13 36 45 140 43 140
-2 0 -8 -6 -14 -12z"/>
<path d="M34000 37957 c0 -3 5 -18 11 -34 6 -15 12 -36 14 -45 5 -24 104 -337
118 -373 6 -16 12 -34 14 -40 1 -5 20 -66 43 -135 23 -69 43 -132 45 -140 3
-16 87 -275 105 -325 6 -16 13 -37 15 -45 4 -16 62 -194 72 -220 3 -8 7 -19 8
-25 2 -5 17 -53 35 -105 32 -96 36 -109 39 -122 1 -4 10 -28 21 -53 11 -25 20
-49 20 -53 0 -7 28 -97 37 -122 8 -18 7 -15 22 -70 7 -25 18 -51 23 -57 6 -7
8 -13 5 -13 -3 0 4 -24 14 -52 11 -29 22 -60 24 -68 2 -8 17 -53 33 -100 16
-47 48 -141 71 -210 23 -69 45 -132 48 -140 3 -8 7 -19 9 -25 4 -17 94 -279
101 -295 3 -8 7 -19 9 -25 1 -5 43 -127 92 -270 50 -143 93 -268 96 -277 3
-10 9 -26 13 -35 3 -10 7 -22 9 -28 4 -14 54 -157 61 -175 3 -8 7 -19 9 -25 1
-5 23 -68 49 -140 65 -180 85 -238 90 -255 2 -8 25 -73 50 -145 26 -71 57
-161 70 -200 13 -38 52 -151 88 -250 36 -99 72 -200 80 -225 8 -25 22 -63 30
-85 9 -22 30 -80 47 -130 17 -49 35 -99 40 -110 5 -11 19 -48 30 -83 11 -34
28 -82 36 -105 9 -23 24 -64 34 -92 10 -27 22 -59 26 -70 4 -11 8 -22 8 -25 1
-5 60 -169 97 -267 37 -102 58 -159 84 -233 15 -41 30 -84 35 -95 4 -11 13
-36 20 -55 7 -19 16 -44 20 -55 8 -20 30 -82 95 -260 20 -55 39 -107 42 -115
4 -8 7 -17 7 -20 2 -9 37 -105 47 -125 4 -11 16 -42 25 -70 9 -27 21 -61 27
-75 6 -14 11 -27 11 -30 1 -3 7 -18 13 -35 6 -16 40 -106 74 -200 34 -93 66
-181 72 -195 6 -14 11 -29 13 -35 1 -5 16 -46 32 -90 17 -44 51 -136 77 -205
25 -69 49 -132 52 -140 3 -8 7 -19 9 -25 1 -5 11 -32 22 -60 29 -75 112 -299
218 -585 53 -140 106 -282 119 -315 13 -33 37 -96 53 -140 17 -44 45 -118 62
-165 18 -47 45 -119 60 -160 15 -41 34 -88 40 -105 7 -16 14 -34 16 -40 5 -17
61 -167 84 -225 12 -30 31 -82 42 -115 11 -33 24 -64 28 -70 4 -5 13 -28 20
-50 7 -22 18 -53 25 -70 24 -57 64 -161 109 -281 25 -67 51 -135 57 -150 6
-16 15 -38 20 -49 12 -31 139 -363 164 -430 13 -33 29 -73 35 -90 7 -16 14
-34 16 -40 1 -5 8 -23 15 -40 6 -16 13 -34 15 -40 3 -10 139 -366 151 -395 3
-8 7 -19 9 -25 1 -5 10 -28 19 -50 27 -64 38 -90 40 -95 1 -7 41 -109 56 -145
6 -16 13 -35 15 -42 1 -7 10 -27 19 -45 9 -18 18 -40 20 -48 3 -14 212 -550
237 -610 6 -14 12 -30 13 -35 2 -6 12 -33 23 -60 11 -28 50 -124 85 -215 36
-91 68 -174 72 -185 5 -11 9 -22 9 -25 1 -3 14 -37 30 -75 15 -39 37 -91 47
-117 10 -26 24 -59 31 -75 6 -15 12 -32 13 -38 2 -5 11 -28 20 -50 10 -22 19
-42 20 -45 8 -22 18 -49 28 -70 6 -14 11 -27 12 -30 2 -10 47 -125 60 -155 7
-16 52 -129 99 -250 89 -225 95 -242 114 -285 6 -14 81 -203 167 -420 86 -217
160 -404 165 -415 26 -59 50 -119 50 -126 0 -5 9 -28 20 -52 11 -23 26 -60 34
-82 8 -22 44 -112 81 -200 37 -88 68 -164 69 -170 2 -5 8 -21 14 -35 5 -14 28
-70 50 -125 22 -55 48 -118 58 -140 10 -22 19 -44 20 -50 2 -9 82 -204 333
-820 45 -110 96 -235 113 -279 16 -43 36 -89 43 -103 11 -21 10 -32 -10 -81
-28 -71 -52 -128 -70 -167 -7 -16 -48 -113 -90 -215 -43 -102 -88 -209 -101
-238 -13 -29 -24 -55 -24 -58 0 -3 -7 -22 -16 -42 -25 -57 -41 -93 -65 -147
-12 -27 -23 -54 -24 -60 -1 -5 -10 -28 -20 -50 -46 -107 -187 -441 -189 -450
-1 -5 -12 -32 -25 -60 -13 -27 -24 -54 -25 -60 -4 -13 -21 -56 -45 -108 -10
-23 -37 -87 -59 -142 -22 -55 -63 -153 -90 -218 -28 -64 -48 -117 -45 -117 3
0 1 -6 -5 -12 -6 -7 -29 -60 -52 -118 -23 -58 -48 -118 -55 -135 -8 -16 -32
-75 -55 -130 -22 -55 -49 -118 -58 -140 -9 -21 -16 -41 -14 -42 2 -2 -4 -16
-12 -31 -17 -30 -33 -67 -71 -162 -27 -69 -34 -84 -58 -140 -19 -43 -38 -93
-39 -100 0 -3 -4 -11 -10 -17 -6 -7 -7 -13 -3 -13 4 0 3 -6 -3 -12 -9 -12 -56
-123 -134 -318 -16 -41 -36 -88 -43 -105 -7 -16 -31 -77 -54 -135 -23 -58 -46
-114 -51 -125 -10 -21 -71 -170 -100 -245 -9 -25 -23 -58 -30 -75 -31 -72 -40
-95 -75 -180 -20 -49 -38 -98 -40 -109 -2 -10 -8 -23 -13 -30 -5 -6 -19 -36
-30 -66 -28 -74 -179 -447 -197 -487 -8 -17 -15 -33 -15 -36 0 -2 -8 -22 -17
-43 -9 -22 -17 -44 -19 -49 -1 -6 -10 -31 -21 -55 -22 -49 -67 -162 -69 -170
0 -3 -6 -16 -12 -30 -16 -36 -63 -153 -66 -165 -1 -5 -8 -21 -16 -35 -7 -14
-13 -27 -13 -30 0 -3 -3 -14 -7 -25 -19 -49 -152 -382 -160 -400 -35 -81 -48
-115 -43 -115 3 0 1 -6 -5 -12 -6 -7 -22 -44 -36 -83 -15 -38 -31 -79 -36 -90
-12 -25 -301 -756 -304 -770 -2 -5 -8 -21 -14 -35 -5 -14 -31 -79 -56 -145
-26 -66 -51 -129 -56 -140 -5 -11 -25 -60 -44 -110 -19 -49 -73 -189 -121
-310 -48 -121 -88 -224 -89 -230 -1 -5 -7 -19 -13 -30 -6 -11 -12 -24 -13 -30
-1 -5 -7 -21 -12 -35 -22 -58 -91 -237 -103 -265 -13 -32 -69 -177 -71 -185 0
-3 -5 -16 -11 -30 -36 -85 -42 -101 -43 -105 0 -3 -7 -20 -15 -39 -8 -20 -15
-40 -15 -46 0 -6 -5 -18 -10 -28 -6 -9 -33 -78 -61 -152 -29 -74 -60 -155 -69
-180 -10 -25 -43 -112 -75 -195 -61 -162 -83 -219 -140 -365 -21 -52 -38 -99
-40 -105 -2 -10 -6 -21 -32 -85 -8 -19 -44 -114 -79 -210 -36 -96 -69 -184
-74 -195 -11 -24 -61 -156 -64 -170 -1 -5 -10 -27 -19 -49 -9 -21 -17 -40 -17
-43 0 -2 -18 -50 -39 -106 -21 -56 -55 -145 -75 -197 -19 -52 -41 -108 -47
-125 -7 -16 -13 -34 -15 -40 -4 -17 -65 -178 -80 -212 -8 -17 -14 -38 -14 -46
0 -9 -4 -18 -9 -21 -5 -3 -11 -16 -14 -28 -2 -13 -46 -133 -97 -268 -50 -135
-93 -249 -94 -255 -2 -5 -8 -23 -15 -40 -17 -42 -41 -107 -46 -125 -2 -8 -12
-36 -24 -62 -11 -27 -18 -48 -14 -48 3 0 1 -6 -4 -13 -6 -6 -20 -39 -31 -72
-11 -34 -25 -72 -31 -85 -5 -14 -31 -83 -56 -155 -26 -71 -51 -139 -55 -150
-16 -37 -45 -120 -45 -127 0 -3 -3 -10 -7 -14 -5 -4 -8 -14 -8 -22 0 -8 -6
-28 -14 -45 -8 -18 -26 -66 -41 -107 -30 -84 -61 -170 -78 -215 -7 -16 -12
-32 -13 -35 0 -3 -3 -12 -6 -20 -28 -72 -91 -246 -92 -254 -1 -6 -4 -15 -7
-21 -5 -8 -30 -77 -34 -95 -1 -3 -6 -16 -12 -30 -6 -14 -22 -59 -37 -100 -14
-41 -39 -113 -56 -160 -17 -47 -33 -92 -35 -100 -2 -8 -16 -46 -31 -85 -14
-38 -27 -77 -29 -85 -2 -8 -16 -46 -30 -85 -15 -38 -28 -74 -29 -80 -1 -5 -4
-14 -8 -20 -3 -5 -10 -26 -16 -45 -6 -19 -29 -87 -52 -150 -23 -63 -43 -119
-44 -125 -2 -5 -6 -17 -9 -25 -12 -34 -57 -160 -82 -235 -15 -44 -38 -108 -51
-143 -13 -34 -24 -64 -24 -67 -1 -8 -7 -26 -35 -105 -15 -41 -28 -79 -29 -85
-2 -5 -6 -19 -10 -30 -5 -11 -14 -37 -22 -58 -8 -20 -11 -37 -8 -37 4 0 2 -6
-4 -12 -5 -7 -14 -29 -20 -48 -6 -19 -36 -109 -67 -200 -31 -91 -59 -172 -60
-180 -2 -8 -22 -66 -44 -127 -22 -62 -37 -113 -35 -113 3 0 -2 -13 -11 -30 -8
-16 -15 -32 -15 -35 -1 -6 -8 -31 -21 -65 -5 -14 -11 -34 -14 -45 -2 -11 -24
-77 -48 -147 -25 -71 -43 -128 -41 -128 2 0 -1 -11 -6 -25 -19 -49 -1 -24 41
58 23 45 61 118 84 162 95 180 272 521 477 920 140 273 877 1749 1033 2070
186 381 330 676 535 1100 32 66 83 172 113 235 56 118 120 251 234 490 36 74
83 173 105 220 22 47 60 127 84 177 24 51 65 137 90 190 108 229 147 311 168
353 13 25 23 47 23 50 0 3 26 59 58 125 31 66 70 147 85 180 45 98 99 214 150
320 26 55 58 123 70 150 12 28 43 93 67 145 25 52 58 122 73 155 15 33 51 109
79 169 28 59 51 110 51 111 0 2 25 56 55 120 31 65 65 139 77 164 11 25 36 79
54 119 19 39 49 105 68 145 52 112 92 197 116 252 12 28 42 92 66 143 24 51
44 95 44 97 0 2 21 48 46 102 25 54 54 116 64 138 10 22 31 67 46 100 14 33
42 94 61 135 19 41 41 89 48 105 8 17 46 99 84 183 39 85 71 155 71 157 0 2
18 43 41 92 22 48 50 108 61 133 11 25 38 83 60 130 22 47 41 90 42 95 2 6 17
39 33 75 17 36 81 178 143 315 61 138 118 264 125 280 8 17 32 70 54 118 23
49 41 90 41 92 0 2 16 39 36 82 20 43 56 123 81 178 25 55 58 128 74 163 16
35 29 65 29 67 0 4 12 32 78 175 16 36 42 95 57 130 15 36 40 93 56 127 16 34
52 115 80 180 28 65 67 151 85 191 19 41 34 75 34 77 0 2 14 34 31 72 17 37
37 82 44 98 31 72 59 134 86 193 16 35 29 65 29 67 0 3 15 37 34 77 43 93 157
350 160 363 2 6 17 41 34 78 18 38 32 71 32 73 0 2 11 27 24 56 13 29 40 91
60 138 52 120 52 117 87 195 17 38 32 74 34 80 1 5 14 37 29 70 15 33 39 87
53 120 30 73 54 127 121 275 11 25 32 74 47 110 15 36 35 83 45 105 10 22 48
110 85 195 64 147 88 202 121 278 8 17 20 47 28 65 7 17 23 52 34 77 11 25 36
86 57 135 20 50 44 106 52 125 20 44 52 119 63 145 5 11 23 51 39 88 17 38 31
71 31 73 0 3 9 24 19 47 10 23 38 87 61 142 23 55 50 118 60 140 10 22 30 69
45 105 15 36 36 84 46 107 10 23 19 44 19 47 0 2 14 34 30 69 17 36 30 68 30
71 0 3 12 31 26 63 41 89 58 129 104 238 23 55 48 112 56 128 9 15 13 27 9 27
-3 0 1 10 9 23 8 12 24 48 36 79 l21 57 -30 70 c-17 38 -31 72 -31 75 0 4 -9
25 -19 49 -11 23 -45 105 -76 182 -32 77 -60 145 -64 150 -3 6 -6 15 -7 21 -1
6 -9 27 -17 45 -9 19 -37 86 -62 149 -48 118 -56 138 -93 225 -12 28 -44 106
-72 175 -28 69 -55 134 -60 145 -18 39 -110 265 -110 270 0 2 -11 28 -24 57
-13 29 -33 76 -44 103 -11 28 -35 88 -55 135 -19 47 -56 137 -82 200 -26 63
-52 126 -58 140 -6 14 -11 27 -12 30 -2 6 8 -17 -138 330 -63 151 -123 293
-133 315 -9 22 -18 42 -19 45 -1 3 -9 22 -18 44 -9 21 -17 40 -17 42 0 2 -9
26 -21 52 -12 26 -25 56 -29 67 -5 11 -23 52 -39 92 -17 39 -31 74 -31 77 0 3
-11 29 -24 58 -31 66 -58 130 -62 143 -2 9 -25 63 -54 130 -39 88 -50 115 -50
119 0 3 -12 31 -27 63 -15 32 -28 63 -29 68 -1 6 -11 31 -23 58 -11 26 -21 49
-21 52 -1 2 -12 31 -27 62 -14 32 -54 128 -90 213 -36 85 -72 171 -81 190 -9
19 -17 37 -18 40 -1 8 -44 111 -64 155 -5 11 -64 148 -130 305 -67 157 -127
299 -135 315 -26 58 -48 110 -51 120 -2 9 -102 244 -124 290 -5 11 -23 54 -41
95 -17 41 -40 94 -50 117 -11 23 -19 44 -19 47 0 2 -13 33 -29 68 -25 56 -41
93 -46 108 -4 11 -56 132 -115 265 -10 22 -27 63 -39 90 -12 28 -26 59 -31 70
-5 11 -32 74 -61 140 -28 66 -63 145 -76 175 -14 30 -34 77 -45 104 -10 27
-24 58 -30 70 -7 12 -13 26 -14 31 -1 6 -15 39 -32 75 -16 36 -57 130 -92 210
-34 80 -66 150 -70 155 -5 6 -9 15 -10 20 -5 23 -77 193 -131 310 -18 39 -34
75 -35 80 -1 6 -18 46 -38 90 -51 111 -52 114 -77 170 -12 28 -32 73 -45 101
-13 28 -24 53 -24 56 0 4 -18 45 -40 92 -22 47 -40 88 -40 90 0 3 -13 33 -29
68 -17 35 -72 160 -124 278 -52 118 -104 235 -115 260 -11 25 -68 151 -126
281 -57 130 -114 256 -125 280 -11 24 -56 125 -99 224 -76 172 -105 234 -168
370 -15 33 -28 62 -29 65 -4 13 -32 75 -100 225 -49 109 -63 139 -104 228 -23
49 -41 90 -41 92 0 2 -16 37 -35 79 -19 42 -51 110 -70 152 -19 42 -35 77 -35
79 0 2 -18 42 -40 89 -22 47 -58 125 -80 172 -22 47 -40 88 -40 89 0 2 -22 52
-50 110 -27 58 -50 107 -50 109 0 2 -25 56 -55 120 -30 64 -55 118 -55 120 0
2 -22 50 -49 107 -48 103 -78 167 -131 284 -38 83 -87 189 -120 260 -28 61
-71 152 -120 260 -27 58 -70 149 -159 339 -23 49 -55 116 -71 150 -15 33 -51
111 -80 171 -51 106 -94 198 -167 355 -20 41 -60 126 -89 187 -30 62 -54 114
-53 115 0 2 -18 39 -39 83 -22 44 -64 130 -92 190 -29 61 -74 155 -100 210
-26 55 -70 147 -98 205 -27 58 -89 186 -137 285 -48 99 -120 248 -160 330
-187 386 -623 1267 -664 1342 -5 10 -49 97 -97 193 -128 256 -174 344 -174
327z"/>
<path d="M12347 32344 c-1 -1 -54 -5 -117 -8 -119 -7 -156 -10 -250 -22 -30
-3 -66 -7 -80 -9 -35 -3 -111 -14 -136 -19 -25 -5 -91 -16 -119 -20 -22 -4
-88 -16 -120 -23 -11 -2 -33 -7 -49 -9 -16 -3 -90 -21 -165 -40 -166 -42 -166
-42 -166 -44 0 -1 -10 -3 -22 -6 -38 -7 -212 -64 -353 -116 -391 -144 -736
-319 -1095 -557 -88 -58 -162 -108 -165 -111 -3 -4 -32 -26 -65 -50 -560 -412
-1074 -994 -1430 -1620 -91 -159 -261 -504 -269 -545 -1 -5 -7 -19 -13 -30 -9
-17 -65 -161 -69 -175 0 -3 -6 -18 -12 -33 -7 -16 -12 -34 -12 -41 0 -6 -4
-16 -8 -21 -8 -9 -30 -76 -33 -100 0 -5 -5 -15 -9 -20 -5 -6 -11 -22 -13 -35
-3 -14 -12 -45 -20 -70 -15 -43 -64 -221 -72 -258 -2 -9 -9 -39 -15 -67 -13
-57 -18 -80 -25 -115 -3 -14 -7 -36 -10 -50 -3 -14 -7 -36 -10 -50 -3 -14 -7
-36 -10 -50 -3 -14 -7 -41 -10 -60 -3 -19 -7 -45 -9 -57 -3 -12 -7 -49 -11
-82 -3 -33 -8 -70 -10 -83 -3 -13 -8 -52 -11 -88 -3 -36 -7 -81 -10 -100 -2
-19 -7 -102 -11 -185 -9 -200 -9 -13279 1 -13465 7 -155 12 -213 22 -300 3
-30 8 -70 10 -89 2 -19 6 -48 8 -65 3 -17 8 -49 11 -71 3 -22 8 -51 10 -65 3
-14 7 -43 11 -65 3 -22 7 -47 9 -55 2 -8 7 -28 10 -45 2 -16 7 -41 10 -55 4
-14 8 -38 11 -55 3 -16 7 -37 10 -45 3 -8 8 -26 10 -38 3 -13 12 -49 20 -80 8
-32 17 -64 19 -72 1 -8 11 -42 21 -75 10 -33 19 -65 20 -70 2 -12 92 -283 101
-305 3 -8 7 -19 9 -25 3 -12 49 -123 71 -175 9 -19 17 -40 18 -45 3 -14 125
-273 146 -311 10 -18 32 -61 50 -95 42 -82 201 -348 245 -411 19 -26 34 -50
34 -54 0 -3 6 -11 13 -19 6 -7 40 -53 75 -102 181 -260 409 -515 745 -837 57
-55 287 -241 401 -326 454 -335 934 -584 1468 -761 97 -32 187 -60 200 -63 12
-2 50 -12 83 -22 33 -10 65 -19 70 -20 6 -1 21 -5 35 -8 31 -6 51 -11 115 -26
28 -7 57 -13 65 -15 8 -1 29 -5 45 -8 17 -4 44 -9 60 -12 17 -3 41 -7 55 -10
25 -5 90 -15 125 -20 11 -2 38 -6 61 -9 88 -14 280 -32 434 -43 52 -3 2915 -6
6362 -7 l6267 -1 44 -36 c130 -110 245 -151 417 -152 162 -1 264 34 395 133
39 30 74 49 84 46 9 -3 36 -7 61 -10 25 -4 56 -8 70 -11 14 -2 57 -7 95 -10
39 -4 84 -8 100 -10 126 -15 502 -19 1740 -19 1251 0 1595 4 1750 19 127 12
232 24 270 31 11 2 38 6 60 9 22 3 51 7 65 10 23 5 104 20 167 31 16 3 55 12
88 20 33 9 72 18 87 19 15 2 48 11 73 19 25 9 51 16 57 16 15 0 165 45 238 72
30 11 62 21 70 23 33 8 289 105 355 135 11 5 65 30 120 56 55 25 115 53 134
61 18 8 50 25 70 37 20 13 39 24 44 24 14 2 210 115 322 185 490 308 914 686
1288 1146 105 130 289 387 361 504 22 38 51 85 63 105 110 180 320 598 348
692 4 14 11 30 15 35 4 6 12 24 18 40 5 17 24 68 42 115 36 98 90 257 95 283
2 9 6 21 9 25 3 5 7 19 10 33 3 13 17 65 31 114 14 50 28 102 30 117 3 15 9
37 14 50 5 13 9 26 9 31 0 4 6 31 11 60 12 56 18 88 26 127 3 14 7 35 9 46 6
30 20 119 31 194 2 14 6 43 10 65 3 22 7 56 9 75 11 107 18 169 23 205 3 22 8
884 10 1915 l4 1875 -1573 -1 c-865 -1 -1578 -2 -1583 -3 -7 -1 -10 -499 -11
-1478 0 -1305 -4 -1614 -18 -1690 -4 -18 -14 -88 -21 -150 -2 -12 -6 -34 -9
-50 -4 -15 -8 -37 -10 -48 -26 -126 -71 -297 -96 -360 -6 -16 -11 -31 -11 -32
1 -6 -13 -43 -60 -163 -64 -162 -162 -358 -245 -487 -19 -29 -34 -57 -34 -62
0 -5 -7 -11 -15 -15 -8 -3 -15 -10 -15 -16 0 -35 -248 -335 -392 -475 -254
-247 -471 -402 -764 -549 -164 -81 -380 -169 -453 -182 -14 -3 -28 -7 -33 -10
-4 -3 -16 -7 -25 -9 -10 -2 -47 -12 -83 -20 -36 -9 -74 -18 -85 -21 -11 -2
-31 -6 -45 -9 -51 -12 -141 -26 -269 -43 -31 -4 -290 -7 -576 -7 -458 0 -606
4 -680 20 -11 3 -38 7 -60 10 -22 3 -47 7 -55 10 -8 2 -31 6 -50 9 -29 4 -133
28 -175 40 -5 1 -30 8 -55 15 -158 44 -280 91 -495 192 -40 18 -176 93 -231
127 -44 27 -190 126 -194 132 -3 4 -12 11 -21 16 -22 12 -83 62 -204 165 -103
89 -257 249 -341 354 -26 33 -50 62 -54 65 -14 12 -131 184 -191 281 -120 192
-230 429 -301 644 -34 104 -82 276 -94 340 -2 11 -6 31 -9 45 -3 14 -8 42 -11
64 -3 21 -8 48 -10 60 -3 11 -7 41 -10 66 -3 25 -7 61 -9 80 -16 127 -19 863
-19 6140 0 5155 3 6010 18 6130 2 14 7 48 10 75 4 28 11 76 16 107 6 32 12 70
15 85 10 62 45 200 74 298 27 87 27 87 34 105 3 8 18 49 32 90 35 101 49 132
128 293 156 318 341 574 596 827 317 314 667 538 1081 690 63 23 122 44 130
45 8 2 15 4 15 5 0 1 7 3 15 5 8 2 60 15 114 29 99 26 115 30 190 41 21 4 48
9 60 11 24 5 97 15 141 20 216 25 986 24 1195 -1 131 -15 181 -23 285 -46 50
-11 99 -22 109 -24 10 -3 33 -9 51 -15 18 -6 41 -12 51 -14 10 -2 60 -18 109
-36 50 -17 95 -33 100 -34 6 -2 30 -12 55 -23 25 -11 56 -24 69 -28 33 -10
275 -135 328 -168 24 -15 45 -27 48 -27 3 0 11 -5 18 -10 7 -6 62 -45 124 -88
535 -370 947 -924 1158 -1556 20 -60 48 -155 62 -210 24 -98 28 -114 38 -166
3 -14 7 -36 10 -50 2 -13 7 -42 10 -65 4 -22 8 -53 11 -70 7 -38 11 -77 20
-190 4 -49 8 -748 8 -1552 1 -970 4 -1463 11 -1464 28 -2 1237 -9 2138 -12
l1018 -4 -4 1941 c-2 1068 -7 1961 -10 1986 -4 25 -9 72 -12 105 -4 33 -8 74
-10 90 -2 17 -7 53 -10 80 -3 28 -7 61 -9 75 -6 32 -17 99 -20 125 -4 21 -16
86 -23 120 -2 11 -5 29 -7 40 -2 11 -6 29 -9 40 -3 11 -9 34 -11 50 -3 17 -10
45 -15 63 -5 17 -8 32 -6 32 2 0 -2 18 -10 40 -8 22 -13 40 -11 40 2 0 -3 21
-11 48 -8 26 -16 57 -19 68 -2 12 -14 53 -26 90 -12 38 -22 74 -24 79 -4 18
-55 169 -63 190 -5 11 -30 76 -57 145 -58 155 -73 188 -191 427 -85 173 -148
291 -171 318 -4 6 -11 18 -15 27 -10 27 -129 213 -139 216 -4 2 -8 8 -8 12 0
8 -49 86 -72 115 -5 6 -38 51 -74 100 -261 361 -645 755 -1014 1041 -161 125
-455 324 -479 324 -5 0 -11 4 -13 8 -12 30 -484 269 -710 361 -119 48 -409
148 -453 157 -11 2 -31 8 -45 13 -26 11 -137 40 -179 48 -14 2 -28 6 -31 8 -4
2 -20 7 -36 9 -16 3 -39 8 -51 11 -57 13 -73 16 -153 31 -47 9 -94 18 -105 20
-11 2 -40 7 -65 10 -25 3 -54 7 -65 9 -60 9 -164 21 -295 32 -114 11 -3291 10
-3405 0 -110 -10 -145 -14 -210 -22 -27 -4 -61 -8 -75 -10 -72 -9 -166 -25
-240 -40 -14 -2 -36 -7 -50 -9 -14 -3 -36 -8 -50 -11 -14 -3 -38 -8 -55 -10
-16 -3 -38 -8 -47 -11 -9 -3 -26 -7 -37 -9 -12 -3 -30 -7 -41 -9 -33 -8 -244
-67 -260 -73 -18 -7 -15 -6 -69 -22 -24 -7 -55 -17 -70 -23 -31 -13 -28 -12
-65 -23 -16 -4 -41 -14 -55 -21 -14 -8 -33 -14 -42 -14 -9 0 -19 -3 -23 -7 -4
-5 -11 -8 -14 -9 -8 -1 -17 -4 -142 -56 -102 -43 -357 -167 -455 -222 -136
-75 -164 -91 -240 -139 -167 -104 -405 -274 -528 -376 -439 -366 -773 -734
-1073 -1187 -52 -78 -94 -146 -94 -152 0 -6 -4 -12 -9 -14 -18 -7 -228 -398
-302 -563 -40 -90 -90 -208 -114 -270 -28 -72 -59 -158 -61 -165 0 -3 -3 -12
-7 -20 -10 -26 -77 -234 -82 -255 -2 -11 -16 -63 -31 -115 -14 -52 -27 -102
-29 -110 -2 -8 -8 -33 -14 -55 -5 -22 -13 -53 -15 -70 -9 -46 -15 -75 -20 -93
-3 -9 -7 -33 -10 -52 -3 -19 -8 -46 -11 -60 -2 -13 -7 -40 -10 -60 -3 -20 -7
-47 -10 -60 -7 -38 -19 -124 -31 -235 -12 -104 -13 -117 -21 -225 -11 -141
-10 -13456 0 -13590 12 -144 13 -156 21 -230 13 -116 15 -127 42 -295 8 -52
23 -132 39 -205 3 -14 7 -34 9 -45 35 -178 163 -619 189 -652 6 -9 5 -14 -4
-18 -24 -8 -8389 -10 -8469 -2 -142 15 -213 25 -241 33 -10 3 -30 7 -45 9 -28
4 -53 9 -101 20 -13 3 -31 7 -41 9 -39 9 -104 28 -164 47 -35 11 -67 22 -73
23 -9 1 -97 35 -150 56 -79 32 -252 116 -332 161 -67 38 -248 153 -262 167 -8
7 -26 21 -40 30 -32 21 -39 27 -171 139 -431 368 -755 883 -901 1433 -11 41
-22 86 -25 100 -3 14 -7 32 -9 40 -2 8 -7 29 -10 45 -2 17 -7 41 -10 55 -3 14
-8 45 -11 70 -3 25 -8 54 -10 65 -2 11 -7 56 -11 100 -10 106 -10 11479 0
11570 8 79 14 125 22 173 3 17 8 49 11 70 6 41 21 108 40 185 6 27 8 31 23 87
8 25 14 50 16 55 1 6 5 17 8 25 3 8 15 42 25 75 23 72 58 159 80 200 9 17 15
32 15 35 -1 3 22 53 52 112 290 578 759 1038 1340 1317 50 24 113 52 140 63
28 11 61 25 75 31 14 6 27 11 30 12 3 1 57 18 120 39 101 33 266 75 355 90
230 39 267 41 700 41 351 0 509 -6 580 -20 11 -3 38 -7 60 -10 81 -12 111 -17
155 -27 25 -5 54 -12 65 -14 11 -2 63 -15 115 -29 52 -14 100 -27 107 -28 7
-2 16 -6 19 -10 4 -4 16 -7 26 -7 10 0 26 -4 36 -9 9 -5 62 -26 117 -46 623
-233 1187 -710 1545 -1305 70 -117 162 -306 213 -435 39 -99 49 -125 53 -140
1 -5 14 -43 28 -82 13 -40 23 -73 20 -73 -3 0 0 -8 5 -18 9 -18 13 -29 26 -99
3 -16 11 -46 17 -68 5 -22 12 -49 13 -60 2 -11 6 -38 9 -60 3 -22 8 -51 11
-65 9 -46 25 -191 30 -280 2 -25 4 -3089 4 -6810 l1 -6765 438 0 437 0 -1
6780 c0 3729 -4 6827 -8 6885 -7 106 -9 121 -20 220 -6 49 -16 115 -31 197 -3
16 -8 44 -11 63 -3 19 -14 73 -25 120 -11 47 -22 92 -24 100 -1 8 -9 35 -16
60 -7 25 -13 48 -15 53 -1 4 -3 9 -4 12 -3 6 -3 6 -14 55 -5 19 -11 40 -14 45
-4 6 -7 15 -8 20 -5 26 -70 201 -112 300 -80 189 -242 504 -264 513 -4 2 -8 8
-8 14 0 15 -197 308 -220 328 -3 3 -17 21 -30 40 -13 19 -30 41 -37 48 -7 8
-26 30 -41 50 -31 42 -38 49 -175 197 -108 117 -285 279 -430 394 -107 85
-243 181 -256 181 -5 0 -11 4 -13 9 -12 32 -445 267 -633 344 -111 45 -249 98
-265 101 -3 1 -9 4 -15 8 -5 3 -37 13 -70 23 -70 19 -75 20 -95 27 -8 3 -35
11 -59 18 -42 11 -52 14 -102 25 -11 2 -28 6 -37 9 -9 3 -29 7 -45 10 -15 3
-35 7 -45 10 -9 3 -33 7 -52 10 -19 3 -46 8 -60 11 -13 2 -40 7 -60 10 -20 3
-45 7 -55 9 -11 2 -49 7 -85 11 -36 4 -78 9 -95 11 -194 25 -934 25 -1160 0
-44 -5 -136 -17 -154 -21 -9 -1 -36 -6 -61 -9 -45 -6 -73 -11 -120 -21 -60
-13 -71 -15 -92 -21 -13 -3 -34 -7 -48 -9 -14 -3 -41 -9 -60 -15 -73 -20 -216
-61 -228 -65 -7 -3 -14 -5 -17 -5 -2 -1 -42 -15 -87 -31 -226 -83 -493 -211
-691 -332 -92 -56 -341 -229 -357 -246 -3 -3 -30 -26 -60 -50 -30 -24 -64 -53
-75 -63 -11 -10 -33 -30 -50 -44 -99 -85 -304 -298 -413 -429 -106 -129 -277
-378 -357 -520 -71 -126 -194 -378 -201 -410 -2 -9 -25 -66 -60 -150 -21 -53
-90 -275 -95 -310 -1 -5 -5 -20 -10 -33 -5 -12 -11 -33 -13 -45 -3 -12 -7 -32
-10 -44 -4 -13 -8 -32 -11 -44 -2 -11 -6 -28 -9 -37 -3 -9 -7 -33 -10 -52 -3
-19 -8 -46 -11 -60 -9 -47 -21 -127 -30 -205 -12 -100 -14 -122 -21 -240 -10
-157 -10 -11333 0 -11490 7 -121 10 -150 20 -240 13 -104 16 -122 36 -225 6
-30 13 -66 15 -80 2 -14 9 -40 14 -57 5 -18 8 -33 6 -33 -2 0 2 -18 10 -40 8
-22 15 -44 15 -48 4 -37 97 -340 110 -357 4 -5 15 -35 25 -65 10 -30 21 -59
25 -65 4 -5 14 -28 23 -50 77 -197 312 -603 441 -762 8 -10 47 -58 86 -108
362 -455 854 -833 1400 -1078 113 -50 412 -161 464 -171 6 -2 31 -8 56 -15 25
-7 55 -15 67 -17 12 -2 34 -9 48 -14 14 -5 25 -7 25 -5 0 2 10 1 23 -4 13 -5
39 -12 58 -15 19 -3 45 -8 59 -11 14 -3 40 -8 59 -11 18 -3 41 -7 50 -9 9 -1
41 -6 71 -10 30 -4 64 -9 75 -11 10 -2 51 -6 90 -10 38 -3 90 -8 115 -11 25
-3 1262 -4 2750 -2 1488 1 3477 3 4420 3 l1715 1 90 -145 c50 -80 105 -165
123 -189 18 -24 32 -47 32 -50 0 -9 -9461 -6 -9600 3 -63 4 -126 9 -140 11
-14 2 -50 7 -80 10 -78 8 -151 19 -215 31 -11 2 -33 7 -50 10 -169 30 -464
116 -640 187 -448 181 -842 437 -1180 766 -440 428 -749 919 -936 1487 -34
103 -35 105 -43 142 -3 12 -14 56 -25 96 -11 40 -22 85 -25 101 -3 16 -10 51
-16 79 -27 134 -41 229 -57 406 -10 105 -9 12347 1 12522 4 70 9 136 11 146 2
10 6 43 9 73 10 92 24 177 41 259 3 14 7 36 10 50 3 14 16 70 30 125 14 55 28
111 31 124 3 13 10 34 16 45 6 12 11 23 11 26 -1 10 23 92 37 125 4 11 27 70
50 130 88 227 264 553 405 750 262 366 599 696 950 932 191 128 492 287 665
353 30 11 64 25 75 30 28 13 245 84 338 110 80 22 103 28 147 36 14 2 45 9 70
14 61 13 99 20 140 25 19 3 44 7 55 10 11 2 47 7 80 11 33 3 74 8 90 10 221
26 2078 26 2310 0 168 -19 246 -30 370 -56 100 -21 133 -28 155 -35 10 -3 27
-7 37 -9 10 -2 45 -12 78 -22 33 -10 65 -19 70 -20 20 -4 221 -76 252 -90 17
-8 34 -14 37 -14 7 0 96 -40 213 -96 50 -24 96 -44 101 -44 6 0 12 -3 14 -7 2
-5 19 -17 38 -27 592 -320 1096 -813 1434 -1405 78 -135 138 -260 216 -446 41
-96 116 -326 140 -425 6 -25 13 -54 16 -65 3 -11 7 -31 10 -45 3 -14 9 -41 14
-60 5 -19 11 -51 14 -70 3 -19 8 -46 11 -60 6 -27 9 -54 20 -140 4 -30 9 -66
11 -80 15 -92 18 -952 18 -7332 l1 -7108 438 0 437 0 -3 7208 c-2 3964 -6
7221 -9 7237 -3 17 -9 62 -13 100 -3 39 -8 77 -10 85 -3 8 -7 38 -10 65 -3 28
-7 61 -10 75 -5 25 -10 50 -19 105 -16 91 -41 201 -71 318 -3 9 -7 27 -10 40
-19 87 -126 399 -177 514 -10 23 -18 44 -18 47 0 18 -181 389 -192 394 -5 2
-8 8 -8 13 0 28 -332 543 -367 568 -4 3 -19 22 -32 41 -37 53 -159 195 -270
315 -121 131 -261 262 -445 416 -142 119 -409 302 -606 416 -112 65 -421 217
-505 249 -11 4 -22 8 -25 8 -3 1 -10 5 -16 8 -27 17 -380 140 -439 153 -11 2
-47 12 -80 21 -33 9 -68 18 -77 20 -10 2 -28 6 -40 10 -13 3 -32 7 -43 9 -11
3 -31 7 -45 10 -85 19 -102 23 -200 40 -47 8 -105 17 -130 20 -25 3 -65 8 -90
11 -25 4 -63 8 -85 10 -22 2 -80 7 -130 11 -118 10 -2121 10 -2250 0 -55 -4
-116 -10 -135 -12 -72 -8 -136 -16 -160 -19 -14 -2 -45 -7 -70 -10 -25 -3 -56
-8 -70 -11 -14 -3 -36 -7 -50 -10 -77 -15 -128 -25 -150 -30 -14 -3 -34 -8
-45 -10 -54 -12 -94 -22 -120 -29 -5 -1 -30 -8 -55 -15 -80 -21 -244 -72 -280
-86 -48 -18 -73 -28 -85 -31 -126 -32 -566 -243 -780 -374 -120 -73 -419 -281
-445 -310 -3 -3 -39 -32 -80 -65 -250 -199 -541 -502 -757 -790 -182 -244
-395 -606 -507 -865 -15 -36 -34 -78 -41 -95 -47 -106 -158 -423 -170 -488 -3
-11 -9 -34 -15 -52 -6 -18 -13 -42 -15 -54 -3 -11 -7 -29 -10 -38 -8 -30 -24
-97 -29 -123 -3 -14 -8 -36 -11 -50 -3 -14 -7 -36 -10 -50 -3 -14 -7 -34 -9
-45 -2 -11 -7 -40 -11 -65 -4 -25 -9 -52 -10 -61 -2 -9 -6 -40 -10 -69 -4 -29
-8 -60 -10 -69 -3 -19 -14 -121 -20 -206 -3 -33 -7 -112 -10 -175 -5 -150 -7
-12400 -2 -12465 3 -27 8 -88 11 -135 4 -47 9 -98 12 -115 3 -16 7 -46 9 -65
7 -60 23 -163 30 -200 3 -14 7 -36 10 -50 4 -21 38 -179 50 -230 15 -69 80
-294 92 -320 8 -19 8 -19 18 -55 4 -16 10 -34 14 -40 3 -5 6 -14 8 -20 12 -53
118 -306 192 -458 75 -153 208 -390 222 -395 5 -2 9 -8 9 -13 0 -12 52 -93 63
-97 4 -2 7 -10 7 -17 0 -8 6 -20 13 -27 7 -7 24 -29 37 -48 41 -59 194 -264
205 -275 6 -5 51 -56 99 -113 144 -167 315 -335 521 -512 17 -14 57 -46 90
-70 33 -25 62 -47 65 -50 17 -18 90 -70 98 -70 6 0 12 -4 14 -9 2 -5 55 -43
118 -85 63 -42 120 -80 126 -84 12 -8 16 -11 190 -110 69 -39 357 -182 368
-182 3 0 34 -13 68 -29 53 -24 93 -40 118 -46 3 -1 12 -5 20 -8 48 -22 268
-96 350 -118 19 -6 40 -11 45 -13 57 -16 96 -26 124 -31 19 -3 37 -8 41 -10 3
-2 17 -6 31 -8 13 -3 42 -10 64 -15 22 -6 56 -13 75 -16 19 -3 46 -8 60 -11
14 -3 41 -7 60 -10 19 -3 44 -7 56 -9 19 -4 85 -13 152 -21 13 -2 55 -7 95
-10 40 -4 95 -10 122 -13 28 -3 2401 -7 5274 -9 l5224 -3 32 -28 c167 -139
253 -209 329 -266 l88 -66 -5708 3 c-3140 2 -5729 6 -5754 9 -25 4 -72 9 -105
12 -33 4 -76 9 -96 12 -20 2 -54 7 -75 9 -21 2 -50 7 -64 10 -13 2 -42 7 -65
10 -22 3 -47 8 -55 10 -8 2 -31 7 -50 10 -19 3 -64 13 -100 21 -36 9 -75 18
-87 20 -12 2 -78 20 -145 40 -68 20 -127 37 -133 38 -5 2 -17 6 -25 9 -8 3
-44 15 -80 27 -163 55 -551 224 -620 270 -8 5 -33 19 -54 31 -33 18 -173 101
-291 174 -40 24 -51 32 -224 161 -495 369 -889 822 -1214 1394 -30 54 -138
269 -137 275 1 3 -6 18 -14 33 -19 34 -46 97 -81 187 -14 39 -30 79 -35 90 -4
11 -13 34 -18 50 -6 17 -13 39 -18 50 -4 11 -8 25 -10 30 -2 6 -17 55 -34 110
-17 55 -33 107 -35 115 -2 8 -11 44 -20 80 -9 36 -19 73 -21 83 -2 10 -6 27
-9 38 -4 11 -8 32 -10 47 -3 15 -7 38 -10 52 -3 14 -8 36 -10 50 -2 14 -7 41
-10 60 -13 71 -27 169 -41 295 -2 17 -7 71 -11 120 -11 120 -10 13485 0 13600
11 117 11 120 32 290 3 22 7 51 10 65 2 14 7 39 10 55 3 17 7 41 10 55 3 14 8
41 11 60 3 19 22 98 41 175 19 77 36 147 38 155 6 26 66 213 78 245 6 17 12
32 13 35 3 15 62 163 91 228 12 29 23 55 23 58 0 11 127 263 180 359 338 603
805 1111 1388 1508 220 150 553 327 802 425 118 47 355 130 393 137 9 2 21 6
25 9 5 3 20 7 35 10 14 2 59 14 100 25 40 11 84 22 98 25 13 3 35 7 49 10 14
3 36 8 50 11 33 7 60 12 101 19 19 3 43 7 54 10 29 5 115 18 150 22 17 1 48 5
70 8 22 3 78 9 125 13 112 10 3241 10 3345 0 112 -11 133 -14 190 -21 96 -12
170 -24 205 -31 14 -3 36 -7 50 -10 14 -3 36 -7 50 -10 14 -3 40 -8 59 -11 19
-3 45 -10 58 -15 13 -5 23 -6 23 -4 0 2 11 0 25 -5 14 -5 36 -12 48 -14 54
-12 68 -15 75 -20 5 -3 19 -7 33 -10 13 -2 83 -24 154 -47 72 -24 132 -44 135
-44 3 -1 19 -7 35 -14 17 -6 41 -16 55 -21 14 -5 39 -15 55 -21 17 -7 32 -13
35 -14 6 -2 61 -26 130 -57 25 -11 99 -48 165 -81 66 -33 130 -65 142 -71 13
-6 23 -14 23 -18 0 -5 5 -8 12 -8 14 0 179 -100 303 -184 81 -55 293 -211 305
-225 3 -3 46 -40 95 -81 116 -97 368 -347 476 -475 230 -270 437 -580 587
-880 47 -93 142 -300 142 -309 0 -2 8 -21 17 -42 9 -22 18 -43 19 -49 2 -5 25
-73 52 -150 42 -121 83 -256 97 -318 2 -10 7 -27 10 -37 3 -10 8 -29 11 -42 2
-13 9 -43 14 -68 5 -25 12 -56 15 -70 3 -14 8 -38 10 -55 3 -16 8 -37 10 -45
2 -8 7 -35 10 -60 2 -25 7 -54 9 -65 2 -11 7 -49 11 -85 4 -36 9 -73 10 -83 4
-16 15 -147 20 -232 2 -22 3 -3344 4 -7383 l1 -7342 438 2 437 3 -1 7350 c0
4043 -4 7400 -8 7460 -8 126 -11 166 -21 250 -11 99 -13 119 -19 150 -3 17 -8
53 -12 80 -3 28 -8 59 -10 70 -3 11 -7 35 -10 54 -3 18 -8 43 -10 55 -3 11 -6
30 -8 41 -2 16 -14 68 -21 95 -1 3 -5 23 -9 45 -7 34 -25 104 -41 165 -3 8 -9
31 -14 50 -5 19 -19 67 -30 105 -12 39 -23 77 -26 85 -71 248 -241 644 -400
935 -273 498 -665 994 -1075 1361 -30 27 -57 52 -60 55 -3 3 -48 41 -100 85
-304 254 -635 473 -995 658 -88 44 -227 112 -240 115 -5 2 -39 16 -74 32 -35
16 -68 29 -73 29 -4 0 -16 4 -26 10 -35 19 -287 112 -342 125 -3 1 -12 4 -20
8 -8 3 -35 11 -60 18 -25 7 -49 14 -55 15 -5 2 -35 11 -65 19 -52 15 -62 18
-110 30 -11 3 -29 7 -40 10 -41 10 -66 16 -85 20 -11 3 -31 7 -45 11 -14 3
-34 7 -45 9 -11 3 -27 6 -35 8 -40 9 -78 17 -110 21 -19 3 -46 8 -60 10 -65
12 -144 23 -287 41 -45 5 -143 14 -233 22 -56 4 -3178 11 -3183 7z"/>
</g>
</svg>
