<?xml version="1.0" encoding="UTF-8" standalone="no"?>
<!-- Created with Inkscape (http://www.inkscape.org/) -->

<svg
   width="45.96328mm"
   height="34.046539mm"
   viewBox="0 0 45.96328 34.046539"
   version="1.1"
   id="svg5"
   inkscape:export-filename="name.svg"
   inkscape:export-xdpi="98"
   inkscape:export-ydpi="98"
   xmlns:inkscape="http://www.inkscape.org/namespaces/inkscape"
   xmlns:sodipodi="http://sodipodi.sourceforge.net/DTD/sodipodi-0.dtd"
   xmlns="http://www.w3.org/2000/svg"
   xmlns:svg="http://www.w3.org/2000/svg">
  <sodipodi:namedview
     id="namedview7"
     pagecolor="#ffffff"
     bordercolor="#666666"
     borderopacity="1.0"
     inkscape:showpageshadow="2"
     inkscape:pageopacity="0.0"
     inkscape:pagecheckerboard="0"
     inkscape:deskcolor="#d1d1d1"
     inkscape:document-units="mm"
     showgrid="false" />
  <defs
     id="defs2" />
  <g
     inkscape:label="Layer 1"
     inkscape:groupmode="layer"
     id="layer1"
     transform="translate(-60.165185,-131.7601)">
    <g
       aria-label="UT
Quantum
Collective"
       id="text451"
       style="font-weight:bold;font-size:10.5833px;font-family:'Fira Code';-inkscape-font-specification:'Fira Code, Bold';letter-spacing:0px;word-spacing:0px;stroke-width:0.264583"
       transform="translate(10.387968,4.9077469)">
      <path
         d="m 56.243623,131.77358 v -4.41323 c 0,-0.33867 -0.07408,-0.508 -0.507999,-0.508 h -0.423332 c -0.402165,0 -0.507998,0.13758 -0.507998,0.508 v 4.4344 c 0,1.03716 -0.306916,1.72508 -1.598078,1.72508 -1.227663,0 -1.555745,-0.62442 -1.555745,-1.7145 v -4.44498 c 0,-0.33867 -0.07408,-0.508 -0.507999,-0.508 h -0.539748 c -0.380999,0 -0.507999,0.11642 -0.507999,0.508 v 4.40265 c 0,2.23308 1.756828,2.66699 3.100907,2.66699 1.206496,0 3.047991,-0.35983 3.047991,-2.65641 z"
         style="-inkscape-font-specification:'Latin Modern Sans'"
         id="path1061" />
      <path
         d="m 64.540929,127.50851 v -0.0847 c 0,-0.33867 -0.07408,-0.508 -0.507999,-0.508 h -5.884314 c -0.380999,0 -0.507999,0.11641 -0.507999,0.508 v 0.0847 c 0,0.508 0.253999,0.508 0.550332,0.508 l 2.127243,-0.0318 v 5.7044 c 0,0.381 0.116416,0.508 0.507998,0.508 h 0.539749 c 0.402165,0 0.507998,-0.13758 0.507998,-0.508 v -5.7044 l 2.11666,0.0318 c 0.296332,0 0.550332,0 0.550332,-0.508 z"
         style="-inkscape-font-specification:'Latin Modern Sans'"
         id="path1063" />
      <path
         d="m 56.878621,143.8703 c 0,-2.12725 -0.772581,-3.95816 -3.545406,-3.95816 -2.931574,0 -3.555989,2.02141 -3.555989,3.95816 0,1.97907 0.687915,3.85232 3.545406,3.85232 0.179916,0 0.423332,0 0.761997,-0.0529 l 0.391583,0.5715 c 0.222249,0.33866 0.253999,0.37041 0.603248,0.37041 h 0.846664 c 0.137582,0 0.380998,0 0.380998,-0.23283 0,-0.0847 -0.02117,-0.10583 -0.158749,-0.29633 l -0.687915,-0.889 c 1.344079,-0.81491 1.418163,-2.56116 1.418163,-3.32315 z m -1.523996,-0.0106 c 0,0.66675 0,1.76741 -0.592664,2.44474 l -0.582082,-0.75141 c -0.105833,-0.11642 -0.148166,-0.11642 -0.359832,-0.11642 h -0.645581 c -0.148167,0 -0.380999,0 -0.380999,0.24342 0,0.11642 0.338665,0.59266 0.529165,0.85725 0.03175,0.0529 0.211666,0.30691 0.211666,0.33866 0,0 -0.169333,0.0212 -0.211666,0.0212 -2.02141,0 -2.02141,-2.09549 -2.02141,-3.03741 0,-0.93133 0,-3.12207 2.02141,-3.12207 2.031993,0 2.031993,2.18016 2.031993,3.12207 z"
         style="-inkscape-font-specification:'Latin Modern Sans'"
         id="path1065" />
      <path
         d="m 62.826442,146.98179 v -3.83116 c 0,-0.33866 -0.07408,-0.508 -0.507999,-0.508 h -0.423332 c -0.402165,0 -0.507998,0.13759 -0.507998,0.508 v 2.50824 c 0,0.6985 -0.370415,1.30175 -1.12183,1.30175 -0.592665,0 -0.656164,-0.14817 -0.656164,-0.70908 v -3.10091 c 0,-0.33866 -0.07408,-0.508 -0.507999,-0.508 h -0.423332 c -0.380998,0 -0.507998,0.11642 -0.507998,0.508 v 3.00566 c 0,1.13241 0.613831,1.44991 1.714494,1.44991 0.28575,0 1.037164,0 1.534579,-0.89958 v 0.27517 c 0,0.33866 0.07408,0.50799 0.507998,0.50799 h 0.391582 c 0.402166,0 0.507999,-0.13758 0.507999,-0.50799 z"
         style="-inkscape-font-specification:'Latin Modern Sans'"
         id="path1067" />
      <path
         d="m 68.488516,146.98179 v -2.83633 c 0,-1.67216 -1.608662,-1.68274 -2.137827,-1.68274 -0.497415,0 -1.02658,0.0423 -1.735661,0.33866 -0.222249,0.0952 -0.275166,0.127 -0.275166,0.24342 0,0.0741 0.0635,0.68791 0.07408,0.77258 0.01058,0.0635 0.0635,0.11641 0.137583,0.11641 0.05292,0 0.08467,-0.0317 0.116416,-0.0635 0.455082,-0.47625 0.984247,-0.70909 1.640412,-0.70909 0.571498,0 0.740831,0.34925 0.740831,0.97367 v 0.37041 c -0.370416,0 -3.14324,0.0212 -3.14324,1.57691 0,0.74084 0.592665,1.524 1.523995,1.524 0.359832,0 1.15358,-0.10583 1.650995,-0.83608 v 0.21167 c 0,0.33866 0.07408,0.50799 0.507998,0.50799 h 0.391582 c 0.402166,0 0.507999,-0.13758 0.507999,-0.50799 z m -1.439329,-1.12183 c 0,0.98424 -1.005414,0.98424 -1.037163,0.98424 -0.444499,0 -0.730248,-0.381 -0.730248,-0.78316 0,-1.03717 1.471078,-1.11125 1.767411,-1.12183 z"
         style="-inkscape-font-specification:'Latin Modern Sans'"
         id="path1069" />
      <path
         d="m 74.319909,146.98179 v -2.93158 c 0,-1.09008 -0.465665,-1.52399 -1.545162,-1.52399 -1.111246,0 -1.587495,0.80433 -1.725077,1.09008 h -0.01058 v -0.52917 c 0,-0.33866 -0.07408,-0.508 -0.507998,-0.508 H 70.17126 c -0.380999,0 -0.507999,0.11642 -0.507999,0.508 v 3.89466 c 0,0.38099 0.116417,0.50799 0.507999,0.50799 h 0.423332 c 0.402165,0 0.507998,-0.13758 0.507998,-0.50799 v -2.33891 c 0,-0.92075 0.613831,-1.35467 1.164163,-1.35467 0.507998,0 0.613831,0.24342 0.613831,0.78317 v 2.91041 c 0,0.33866 0.07408,0.50799 0.507999,0.50799 h 0.423332 c 0.402165,0 0.507998,-0.13758 0.507998,-0.50799 z"
         style="-inkscape-font-specification:'Latin Modern Sans'"
         id="path1071" />
      <path
         d="m 78.913071,146.99237 c 0,-0.0317 -0.02117,-0.10583 -0.08467,-0.32808 -0.05292,-0.21167 -0.07408,-0.27517 -0.169333,-0.27517 -0.05292,0 -0.0635,0.0106 -0.126999,0.0741 -0.116416,0.0847 -0.402166,0.3175 -0.846664,0.3175 -0.253999,0 -0.412749,-0.17991 -0.412749,-0.87841 v -2.49766 h 0.941914 c 0.126999,0 0.507998,0 0.507998,-0.381 0,-0.381 -0.380999,-0.381 -0.507998,-0.381 h -0.941914 v -0.87841 c 0,-0.33867 -0.07408,-0.508 -0.507998,-0.508 h -0.328082 c -0.380999,0 -0.507999,0.11642 -0.507999,0.508 v 0.87841 h -0.243416 c -0.116416,0 -0.507998,0 -0.507998,0.381 0,0.381 0.380999,0.381 0.507998,0.381 h 0.211666 v 2.67757 c 0,1.06892 0.380999,1.524 1.111247,1.524 0.09525,0 0.560915,0 1.111246,-0.16933 0.179916,-0.0529 0.793748,-0.24342 0.793748,-0.4445 z"
         style="-inkscape-font-specification:'Latin Modern Sans'"
         id="path1073" />
      <path
         d="m 84.532796,146.98179 v -3.83116 c 0,-0.33866 -0.07408,-0.508 -0.507998,-0.508 h -0.423332 c -0.402166,0 -0.507999,0.13759 -0.507999,0.508 v 2.50824 c 0,0.6985 -0.370415,1.30175 -1.12183,1.30175 -0.592664,0 -0.656164,-0.14817 -0.656164,-0.70908 v -3.10091 c 0,-0.33866 -0.07408,-0.508 -0.507999,-0.508 h -0.423332 c -0.380998,0 -0.507998,0.11642 -0.507998,0.508 v 3.00566 c 0,1.13241 0.613831,1.44991 1.714495,1.44991 0.285749,0 1.037163,0 1.534578,-0.89958 v 0.27517 c 0,0.33866 0.07408,0.50799 0.507998,0.50799 h 0.391583 c 0.402165,0 0.507998,-0.13758 0.507998,-0.50799 z"
         style="-inkscape-font-specification:'Latin Modern Sans'"
         id="path1075" />
      <path
         d="m 93.708522,146.98179 v -2.93158 c 0,-1.09008 -0.465665,-1.52399 -1.545161,-1.52399 -0.751415,0 -1.333496,0.34925 -1.714495,1.04774 -0.169333,-1.01599 -1.068913,-1.04774 -1.513412,-1.04774 -0.201082,0 -0.645581,0 -1.12183,0.34925 -0.328082,0.24341 -0.539748,0.58208 -0.613831,0.74083 h -0.01058 v -0.52917 c 0,-0.33866 -0.07408,-0.508 -0.507999,-0.508 h -0.359832 c -0.380999,0 -0.507998,0.11642 -0.507998,0.508 v 3.89466 c 0,0.38099 0.116416,0.50799 0.507998,0.50799 h 0.423332 c 0.402166,0 0.507999,-0.13758 0.507999,-0.50799 v -2.33891 c 0,-0.9525 0.645581,-1.35467 1.164163,-1.35467 0.507998,0 0.624414,0.22225 0.624414,0.78317 v 2.91041 c 0,0.38099 0.116417,0.50799 0.507999,0.50799 h 0.423332 c 0.402165,0 0.507998,-0.13758 0.507998,-0.50799 v -2.33891 c 0,-0.9525 0.645581,-1.35467 1.164163,-1.35467 0.507998,0 0.624415,0.22225 0.624415,0.78317 v 2.91041 c 0,0.38099 0.116416,0.50799 0.507998,0.50799 h 0.423332 c 0.402165,0 0.507998,-0.13758 0.507998,-0.50799 z"
         style="-inkscape-font-specification:'Latin Modern Sans'"
         id="path1077" />
      <path
         d="m 55.968457,160.16858 -0.08467,-0.91017 c 0,-0.0635 -0.0635,-0.11641 -0.126999,-0.11641 -0.03175,0 -0.05292,0.0106 -0.08467,0.0212 -0.285749,0.22225 -0.592664,0.43392 -0.941913,0.55034 -0.349249,0.11641 -0.719665,0.12699 -1.079497,0.12699 -0.656164,0 -1.312329,-0.17991 -1.735661,-0.66674 -0.476248,-0.56092 -0.582081,-1.32292 -0.582081,-2.06375 0,-0.74083 0.105833,-1.50283 0.582081,-2.06374 0.423332,-0.49741 1.079497,-0.67733 1.735661,-0.67733 0.317499,0 0.645581,0.0423 0.952497,0.15875 0.306916,0.11641 0.571498,0.29633 0.814914,0.51858 0.02117,0.0212 0.05292,0.0318 0.08467,0.0318 0.07408,0 0.126999,-0.0529 0.137582,-0.10583 l 0.201083,-1.13242 c 0,-0.0847 -0.04233,-0.127 -0.08467,-0.14816 -0.338666,-0.127 -0.687915,-0.23283 -1.037164,-0.29633 -0.359832,-0.0635 -0.719664,-0.0847 -1.068913,-0.0847 -1.05833,0 -2.14841,0.22225 -2.899824,0.9525 -0.740831,0.73024 -0.973664,1.79916 -0.973664,2.8469 0,1.03717 0.232833,2.10608 0.973664,2.83633 0.751414,0.74083 1.841494,0.95249 2.899824,0.95249 0.391582,0 0.793748,-0.0106 1.174746,-0.11641 0.380999,-0.10583 0.730248,-0.28575 1.079497,-0.48683 0.03175,-0.0212 0.0635,-0.0635 0.0635,-0.127 z"
         style="-inkscape-font-specification:'Latin Modern Sans'"
         id="path1079" />
      <path
         d="m 62.053845,158.40117 c 0,-1.73567 -0.846664,-2.64583 -2.571742,-2.64583 -1.767411,0 -2.582325,0.94191 -2.582325,2.64583 0,1.72507 0.910163,2.49765 2.571741,2.49765 1.661578,0 2.582326,-0.76199 2.582326,-2.49765 z m -1.439329,-0.127 c 0,0.83608 0,1.79916 -1.132413,1.79916 -1.142997,0 -1.142997,-0.9525 -1.142997,-1.79916 0,-0.81492 0,-1.75683 1.132413,-1.75683 1.142997,0 1.142997,0.93133 1.142997,1.75683 z"
         style="-inkscape-font-specification:'Latin Modern Sans'"
         id="path1081" />
      <path
         d="m 64.445662,160.27441 v -6.32881 c 0,-0.33867 -0.07408,-0.508 -0.507998,-0.508 h -0.391583 c -0.380998,0 -0.507998,0.11641 -0.507998,0.508 v 6.32881 c 0,0.381 0.116416,0.508 0.507998,0.508 h 0.391583 c 0.402165,0 0.507998,-0.13758 0.507998,-0.508 z"
         style="-inkscape-font-specification:'Latin Modern Sans'"
         id="path1083" />
      <path
         d="m 67.154992,160.27441 v -6.32881 c 0,-0.33867 -0.07408,-0.508 -0.507999,-0.508 h -0.391582 c -0.380999,0 -0.507998,0.11641 -0.507998,0.508 v 6.32881 c 0,0.381 0.116416,0.508 0.507998,0.508 h 0.391582 c 0.402166,0 0.507999,-0.13758 0.507999,-0.508 z"
         style="-inkscape-font-specification:'Latin Modern Sans'"
         id="path1085" />
      <path
         d="m 72.880562,158.03075 c 0,-1.36525 -0.634998,-2.27541 -2.21191,-2.27541 -1.693328,0 -2.529409,0.9525 -2.529409,2.56116 0,1.73566 1.005414,2.58232 2.666992,2.58232 0.402165,0 1.005413,-0.0529 1.703911,-0.40216 0.232833,-0.11642 0.306916,-0.14817 0.306916,-0.27517 0,-0.0741 -0.03175,-0.381 -0.04233,-0.46566 -0.04233,-0.32808 -0.05292,-0.33867 -0.148167,-0.33867 -0.04233,0 -0.0635,0 -0.179916,0.10584 -0.624414,0.53974 -1.259412,0.61383 -1.598078,0.61383 -1.195913,0 -1.322912,-0.94192 -1.354662,-1.61925 h 2.878657 c 0.243416,0 0.507999,-0.0106 0.507999,-0.48683 z m -1.174747,-0.0741 h -2.201326 c 0.03175,-0.64558 0.243416,-1.43933 1.164163,-1.43933 0.846664,0 1.005413,0.61383 1.037163,1.43933 z"
         style="-inkscape-font-specification:'Latin Modern Sans'"
         id="path1087" />
      <path
         d="m 78.055793,160.25324 c 0,-0.11641 -0.04233,-0.60324 -0.0635,-0.74083 0,-0.0317 -0.02117,-0.13758 -0.127,-0.13758 -0.04233,0 -0.0635,0 -0.169332,0.10583 -0.179916,0.15875 -0.677332,0.59267 -1.545162,0.59267 -1.100663,0 -1.100663,-1.06892 -1.100663,-1.74625 0,-0.85724 0.05292,-1.74624 1.132413,-1.74624 0.687914,0 0.973663,0.16933 1.354662,0.48683 0.127,0.11642 0.148166,0.11642 0.1905,0.11642 0.105833,0 0.126999,-0.0952 0.137582,-0.13759 0.02117,-0.0847 0.127,-0.67733 0.127,-0.73024 0,-0.0952 -0.07408,-0.13759 -0.253999,-0.22225 -0.507999,-0.23284 -0.825497,-0.33867 -1.566328,-0.33867 -1.576912,0 -2.561159,0.74083 -2.561159,2.59291 0,1.75683 0.910164,2.55057 2.508242,2.55057 0.285749,0 0.920747,-0.0106 1.629828,-0.37041 0.296333,-0.15875 0.306916,-0.16933 0.306916,-0.27517 z"
         style="-inkscape-font-specification:'Latin Modern Sans'"
         id="path1089" />
      <path
         d="m 82.342033,160.28499 c 0,-0.0317 -0.02117,-0.10583 -0.08467,-0.32808 -0.05292,-0.21166 -0.07408,-0.27516 -0.169333,-0.27516 -0.05292,0 -0.0635,0.0106 -0.126999,0.0741 -0.116417,0.0847 -0.402166,0.3175 -0.846664,0.3175 -0.254,0 -0.412749,-0.17992 -0.412749,-0.87842 v -2.49766 h 0.941914 c 0.126999,0 0.507998,0 0.507998,-0.38099 0,-0.381 -0.380999,-0.381 -0.507998,-0.381 h -0.941914 v -0.87842 c 0,-0.33866 -0.07408,-0.50799 -0.507998,-0.50799 h -0.328083 c -0.380999,0 -0.507998,0.11641 -0.507998,0.50799 v 0.87842 h -0.243416 c -0.116416,0 -0.507998,0 -0.507998,0.381 0,0.38099 0.380998,0.38099 0.507998,0.38099 h 0.211666 v 2.67758 c 0,1.06891 0.380999,1.52399 1.111246,1.52399 0.09525,0 0.560915,0 1.111247,-0.16933 0.179916,-0.0529 0.793747,-0.24341 0.793747,-0.4445 z"
         style="-inkscape-font-specification:'Latin Modern Sans'"
         id="path1091" />
      <path
         d="m 84.723269,160.27441 v -3.83115 c 0,-0.33867 -0.07408,-0.508 -0.507998,-0.508 h -0.391583 c -0.380998,0 -0.507998,0.11641 -0.507998,0.508 v 3.83115 c 0,0.381 0.116416,0.508 0.507998,0.508 h 0.391583 c 0.402165,0 0.507998,-0.13758 0.507998,-0.508 z m 0.07408,-5.90548 v -0.20108 c 0,-0.33867 -0.07408,-0.508 -0.507998,-0.508 h -0.539749 c -0.402165,0 -0.507998,0.13758 -0.507998,0.508 v 0.20108 c 0,0.30691 0.05292,0.508 0.507998,0.508 h 0.539749 c 0.444498,0 0.507998,-0.1905 0.507998,-0.508 z"
         style="-inkscape-font-specification:'Latin Modern Sans'"
         id="path1093" />
      <path
         d="m 90.385337,156.23159 c 0,-0.29633 -0.264582,-0.29633 -0.423332,-0.29633 h -0.222249 c -0.444499,0 -0.560915,0.15875 -0.656165,0.45508 l -1.047746,3.19616 -1.047747,-3.19616 c -0.07408,-0.22225 -0.148166,-0.45508 -0.656165,-0.45508 h -0.253999 c -0.158749,0 -0.423332,0 -0.423332,0.29633 0,0.0317 0,0.0529 0.05292,0.20108 l 1.259412,3.90524 c 0.148167,0.4445 0.476249,0.4445 0.666748,0.4445 h 0.772581 c 0.1905,0 0.518582,0 0.666748,-0.4445 l 1.259413,-3.90524 c 0.05292,-0.14816 0.05292,-0.16933 0.05292,-0.20108 z"
         style="-inkscape-font-specification:'Latin Modern Sans'"
         id="path1095" />
      <path
         d="m 95.74049,158.03075 c 0,-1.36525 -0.634998,-2.27541 -2.21191,-2.27541 -1.693328,0 -2.529409,0.9525 -2.529409,2.56116 0,1.73566 1.005414,2.58232 2.666992,2.58232 0.402165,0 1.005413,-0.0529 1.703911,-0.40216 0.232833,-0.11642 0.306916,-0.14817 0.306916,-0.27517 0,-0.0741 -0.03175,-0.381 -0.04233,-0.46566 -0.04233,-0.32808 -0.05292,-0.33867 -0.148166,-0.33867 -0.04233,0 -0.0635,0 -0.179917,0.10584 -0.624414,0.53974 -1.259412,0.61383 -1.598078,0.61383 -1.195913,0 -1.322912,-0.94192 -1.354662,-1.61925 h 2.878657 c 0.243416,0 0.507999,-0.0106 0.507999,-0.48683 z m -1.174747,-0.0741 h -2.201326 c 0.03175,-0.64558 0.243416,-1.43933 1.164163,-1.43933 0.846664,0 1.005414,0.61383 1.037163,1.43933 z"
         style="-inkscape-font-specification:'Latin Modern Sans'"
         id="path1097" />
    </g>
  </g>
</svg>
