<?xml version="1.0" encoding="UTF-8" standalone="no"?>
<!-- Created with Inkscape (http://www.inkscape.org/) -->

<svg
   width="45.963402mm"
   height="34.046478mm"
   viewBox="0 0 45.963402 34.046478"
   version="1.1"
   id="svg5"
   inkscape:export-filename="name2.svg"
   inkscape:export-xdpi="98"
   inkscape:export-ydpi="98"
   xmlns:inkscape="http://www.inkscape.org/namespaces/inkscape"
   xmlns:sodipodi="http://sodipodi.sourceforge.net/DTD/sodipodi-0.dtd"
   xmlns="http://www.w3.org/2000/svg"
   xmlns:svg="http://www.w3.org/2000/svg">
  <sodipodi:namedview
     id="namedview7"
     pagecolor="#ffffff"
     bordercolor="#666666"
     borderopacity="1.0"
     inkscape:showpageshadow="2"
     inkscape:pageopacity="0.0"
     inkscape:pagecheckerboard="0"
     inkscape:deskcolor="#d1d1d1"
     inkscape:document-units="mm"
     showgrid="false"
     inkscape:zoom="0.75639448"
     inkscape:cx="419.09349"
     inkscape:cy="779.35524"
     inkscape:current-layer="layer1" />
  <defs
     id="defs2" />
  <g
     inkscape:label="Layer 1"
     inkscape:groupmode="layer"
     id="layer1"
     transform="translate(-125.65916,-164.05917)">
    <g
       aria-label="UT
Quantum
Collective"
       id="text451-1"
       style="font-weight:bold;font-size:10.5833px;line-height:1.2;font-family:'Fira Code';-inkscape-font-specification:'Fira Code, Bold';letter-spacing:0px;word-spacing:0px;stroke-width:0.264583">
      <path
         d="m 132.12565,168.9804 v -4.41324 c 0,-0.33866 -0.0741,-0.50799 -0.508,-0.50799 h -0.42333 c -0.40217,0 -0.508,0.13758 -0.508,0.50799 v 4.43441 c 0,1.03716 -0.30692,1.72508 -1.59808,1.72508 -1.22766,0 -1.55574,-0.62442 -1.55574,-1.7145 v -4.44499 c 0,-0.33866 -0.0741,-0.50799 -0.508,-0.50799 h -0.53975 c -0.381,0 -0.508,0.11641 -0.508,0.50799 v 4.40266 c 0,2.23307 1.75683,2.66699 3.10091,2.66699 1.2065,0 3.04799,-0.35983 3.04799,-2.65641 z"
         style="font-family:'Latin Modern Sans';-inkscape-font-specification:'Latin Modern Sans';fill:#3a3a3a"
         id="path1451" />
      <path
         d="m 140.42296,164.71533 v -0.0847 c 0,-0.33866 -0.0741,-0.50799 -0.508,-0.50799 h -5.88432 c -0.381,0 -0.508,0.11641 -0.508,0.50799 v 0.0847 c 0,0.508 0.254,0.508 0.55034,0.508 l 2.12724,-0.0318 v 5.7044 c 0,0.381 0.11641,0.508 0.508,0.508 h 0.53975 c 0.40216,0 0.50799,-0.13759 0.50799,-0.508 v -5.7044 l 2.11666,0.0318 c 0.29634,0 0.55034,0 0.55034,-0.508 z"
         style="font-family:'Latin Modern Sans';-inkscape-font-specification:'Latin Modern Sans';fill:#3a3a3a"
         id="path1453" />
      <path
         d="m 132.76065,181.07711 c 0,-2.12724 -0.77258,-3.95815 -3.54541,-3.95815 -2.93157,0 -3.55599,2.02141 -3.55599,3.95815 0,1.97908 0.68792,3.85232 3.54541,3.85232 0.17991,0 0.42333,0 0.762,-0.0529 l 0.39158,0.5715 c 0.22225,0.33866 0.254,0.37041 0.60325,0.37041 h 0.84666 c 0.13758,0 0.381,0 0.381,-0.23283 0,-0.0847 -0.0212,-0.10583 -0.15875,-0.29633 l -0.68791,-0.889 c 1.34407,-0.81492 1.41816,-2.56116 1.41816,-3.32316 z m -1.524,-0.0106 c 0,0.66675 0,1.76741 -0.59266,2.44474 l -0.58208,-0.75141 c -0.10584,-0.11642 -0.14817,-0.11642 -0.35984,-0.11642 h -0.64558 c -0.14816,0 -0.381,0 -0.381,0.24342 0,0.11641 0.33867,0.59266 0.52917,0.85724 0.0318,0.0529 0.21166,0.30692 0.21166,0.33867 0,0 -0.16933,0.0212 -0.21166,0.0212 -2.02141,0 -2.02141,-2.0955 -2.02141,-3.03741 0,-0.93133 0,-3.12207 2.02141,-3.12207 2.03199,0 2.03199,2.18016 2.03199,3.12207 z"
         style="font-family:'Latin Modern Sans';-inkscape-font-specification:'Latin Modern Sans';fill:#3a3a3a"
         id="path1455" />
      <path
         d="m 138.70847,184.1886 v -3.83115 c 0,-0.33867 -0.0741,-0.508 -0.508,-0.508 h -0.42333 c -0.40217,0 -0.508,0.13758 -0.508,0.508 v 2.50824 c 0,0.6985 -0.37042,1.30175 -1.12183,1.30175 -0.59266,0 -0.65616,-0.14817 -0.65616,-0.70908 v -3.10091 c 0,-0.33867 -0.0741,-0.508 -0.508,-0.508 h -0.42334 c -0.38099,0 -0.50799,0.11642 -0.50799,0.508 v 3.00566 c 0,1.13241 0.61383,1.44991 1.71449,1.44991 0.28575,0 1.03716,0 1.53458,-0.89958 v 0.27516 c 0,0.33867 0.0741,0.508 0.508,0.508 h 0.39158 c 0.40217,0 0.508,-0.13758 0.508,-0.508 z"
         style="font-family:'Latin Modern Sans';-inkscape-font-specification:'Latin Modern Sans';fill:#3a3a3a"
         id="path1457" />
      <path
         d="m 144.37054,184.1886 v -2.83632 c 0,-1.67216 -1.60866,-1.68275 -2.13782,-1.68275 -0.49742,0 -1.02658,0.0423 -1.73567,0.33867 -0.22224,0.0953 -0.27516,0.127 -0.27516,0.24342 0,0.0741 0.0635,0.68791 0.0741,0.77258 0.0106,0.0635 0.0635,0.11641 0.13758,0.11641 0.0529,0 0.0847,-0.0318 0.11642,-0.0635 0.45508,-0.47625 0.98425,-0.70908 1.64041,-0.70908 0.5715,0 0.74083,0.34925 0.74083,0.97367 v 0.37041 c -0.37041,0 -3.14324,0.0212 -3.14324,1.57691 0,0.74083 0.59267,1.524 1.524,1.524 0.35983,0 1.15358,-0.10584 1.65099,-0.83608 v 0.21166 c 0,0.33867 0.0741,0.508 0.508,0.508 h 0.39158 c 0.40217,0 0.508,-0.13758 0.508,-0.508 z m -1.43933,-1.12183 c 0,0.98425 -1.00541,0.98425 -1.03716,0.98425 -0.4445,0 -0.73025,-0.381 -0.73025,-0.78316 0,-1.03717 1.47108,-1.11125 1.76741,-1.12183 z"
         style="font-family:'Latin Modern Sans';-inkscape-font-specification:'Latin Modern Sans';fill:#3a3a3a"
         id="path1459" />
      <path
         d="m 150.20194,184.1886 v -2.93157 c 0,-1.09008 -0.46567,-1.524 -1.54517,-1.524 -1.11124,0 -1.58749,0.80433 -1.72507,1.09008 h -0.0106 v -0.52916 c 0,-0.33867 -0.0741,-0.508 -0.508,-0.508 h -0.35983 c -0.381,0 -0.508,0.11642 -0.508,0.508 v 3.89465 c 0,0.381 0.11642,0.508 0.508,0.508 h 0.42333 c 0.40217,0 0.508,-0.13758 0.508,-0.508 v -2.33891 c 0,-0.92074 0.61383,-1.35466 1.16417,-1.35466 0.50799,0 0.61383,0.24342 0.61383,0.78317 v 2.9104 c 0,0.33867 0.0741,0.508 0.508,0.508 h 0.42333 c 0.40216,0 0.508,-0.13758 0.508,-0.508 z"
         style="font-family:'Latin Modern Sans';-inkscape-font-specification:'Latin Modern Sans';fill:#3a3a3a"
         id="path1461" />
      <path
         d="m 154.7951,184.19919 c 0,-0.0317 -0.0212,-0.10584 -0.0847,-0.32809 -0.0529,-0.21166 -0.0741,-0.27516 -0.16933,-0.27516 -0.0529,0 -0.0635,0.0106 -0.127,0.0741 -0.11642,0.0847 -0.40217,0.3175 -0.84667,0.3175 -0.25399,0 -0.41274,-0.17992 -0.41274,-0.87841 v -2.49766 h 0.94191 c 0.127,0 0.508,0 0.508,-0.381 0,-0.381 -0.381,-0.381 -0.508,-0.381 h -0.94191 v -0.87841 c 0,-0.33867 -0.0741,-0.508 -0.508,-0.508 h -0.32808 c -0.381,0 -0.508,0.11641 -0.508,0.508 v 0.87841 h -0.24342 c -0.11642,0 -0.508,0 -0.508,0.381 0,0.381 0.381,0.381 0.508,0.381 h 0.21167 v 2.67757 c 0,1.06892 0.381,1.524 1.11124,1.524 0.0953,0 0.56092,0 1.11125,-0.16934 0.17992,-0.0529 0.79375,-0.24341 0.79375,-0.44449 z"
         style="font-family:'Latin Modern Sans';-inkscape-font-specification:'Latin Modern Sans';fill:#3a3a3a"
         id="path1463" />
      <path
         d="m 160.41482,184.1886 v -3.83115 c 0,-0.33867 -0.0741,-0.508 -0.508,-0.508 h -0.42333 c -0.40216,0 -0.508,0.13758 -0.508,0.508 v 2.50824 c 0,0.6985 -0.37041,1.30175 -1.12183,1.30175 -0.59266,0 -0.65616,-0.14817 -0.65616,-0.70908 v -3.10091 c 0,-0.33867 -0.0741,-0.508 -0.508,-0.508 h -0.42333 c -0.381,0 -0.508,0.11642 -0.508,0.508 v 3.00566 c 0,1.13241 0.61383,1.44991 1.7145,1.44991 0.28574,0 1.03716,0 1.53457,-0.89958 v 0.27516 c 0,0.33867 0.0741,0.508 0.508,0.508 h 0.39158 c 0.40217,0 0.508,-0.13758 0.508,-0.508 z"
         style="font-family:'Latin Modern Sans';-inkscape-font-specification:'Latin Modern Sans';fill:#3a3a3a"
         id="path1465" />
      <path
         d="m 169.59055,184.1886 v -2.93157 c 0,-1.09008 -0.46567,-1.524 -1.54516,-1.524 -0.75142,0 -1.3335,0.34925 -1.7145,1.04775 -0.16933,-1.016 -1.06891,-1.04775 -1.51341,-1.04775 -0.20108,0 -0.64558,0 -1.12183,0.34925 -0.32808,0.24342 -0.53975,0.58208 -0.61383,0.74083 h -0.0106 v -0.52916 c 0,-0.33867 -0.0741,-0.508 -0.508,-0.508 h -0.35983 c -0.381,0 -0.508,0.11642 -0.508,0.508 v 3.89465 c 0,0.381 0.11641,0.508 0.508,0.508 h 0.42333 c 0.40216,0 0.508,-0.13758 0.508,-0.508 v -2.33891 c 0,-0.95249 0.64558,-1.35466 1.16416,-1.35466 0.508,0 0.62441,0.22225 0.62441,0.78317 v 2.9104 c 0,0.381 0.11642,0.508 0.508,0.508 h 0.42333 c 0.40217,0 0.508,-0.13758 0.508,-0.508 v -2.33891 c 0,-0.95249 0.64558,-1.35466 1.16417,-1.35466 0.50799,0 0.62441,0.22225 0.62441,0.78317 v 2.9104 c 0,0.381 0.11642,0.508 0.508,0.508 h 0.42333 c 0.40217,0 0.508,-0.13758 0.508,-0.508 z"
         style="font-family:'Latin Modern Sans';-inkscape-font-specification:'Latin Modern Sans';fill:#3a3a3a"
         id="path1467" />
      <path
         d="m 131.85048,197.37539 -0.0847,-0.91016 c 0,-0.0635 -0.0635,-0.11642 -0.127,-0.11642 -0.0318,0 -0.0529,0.0106 -0.0847,0.0212 -0.28575,0.22225 -0.59266,0.43392 -0.94191,0.55033 -0.34925,0.11642 -0.71967,0.127 -1.0795,0.127 -0.65616,0 -1.31233,-0.17991 -1.73566,-0.66675 -0.47625,-0.56091 -0.58208,-1.32291 -0.58208,-2.06374 0,-0.74083 0.10583,-1.50283 0.58208,-2.06374 0.42333,-0.49742 1.0795,-0.67733 1.73566,-0.67733 0.3175,0 0.64558,0.0423 0.9525,0.15875 0.30691,0.11641 0.5715,0.29633 0.81491,0.51858 0.0212,0.0212 0.0529,0.0317 0.0847,0.0317 0.0741,0 0.127,-0.0529 0.13758,-0.10584 l 0.20108,-1.13241 c 0,-0.0847 -0.0423,-0.127 -0.0847,-0.14816 -0.33867,-0.127 -0.68792,-0.23284 -1.03717,-0.29634 -0.35983,-0.0635 -0.71966,-0.0847 -1.06891,-0.0847 -1.05833,0 -2.14841,0.22225 -2.89982,0.95249 -0.74083,0.73025 -0.97367,1.79916 -0.97367,2.84691 0,1.03716 0.23284,2.10608 0.97367,2.83633 0.75141,0.74083 1.84149,0.95249 2.89982,0.95249 0.39158,0 0.79375,-0.0106 1.17475,-0.11641 0.381,-0.10584 0.73024,-0.28575 1.07949,-0.48684 0.0317,-0.0212 0.0635,-0.0635 0.0635,-0.127 z"
         style="font-family:'Latin Modern Sans';-inkscape-font-specification:'Latin Modern Sans';fill:#3a3a3a"
         id="path1469" />
      <path
         d="m 137.93587,195.60798 c 0,-1.73566 -0.84666,-2.64582 -2.57174,-2.64582 -1.76741,0 -2.58233,0.94191 -2.58233,2.64582 0,1.72508 0.91017,2.49766 2.57175,2.49766 1.66157,0 2.58232,-0.762 2.58232,-2.49766 z m -1.43933,-0.127 c 0,0.83608 0,1.79917 -1.13241,1.79917 -1.143,0 -1.143,-0.9525 -1.143,-1.79917 0,-0.81491 0,-1.75682 1.13242,-1.75682 1.14299,0 1.14299,0.93133 1.14299,1.75682 z"
         style="font-family:'Latin Modern Sans';-inkscape-font-specification:'Latin Modern Sans';fill:#3a3a3a"
         id="path1471" />
      <path
         d="m 140.32769,197.48123 v -6.32882 c 0,-0.33866 -0.0741,-0.50799 -0.508,-0.50799 h -0.39158 c -0.381,0 -0.508,0.11641 -0.508,0.50799 v 6.32882 c 0,0.381 0.11642,0.508 0.508,0.508 h 0.39158 c 0.40217,0 0.508,-0.13759 0.508,-0.508 z"
         style="font-family:'Latin Modern Sans';-inkscape-font-specification:'Latin Modern Sans';fill:#3a3a3a"
         id="path1473" />
      <path
         d="m 143.03702,197.48123 v -6.32882 c 0,-0.33866 -0.0741,-0.50799 -0.508,-0.50799 h -0.39158 c -0.381,0 -0.508,0.11641 -0.508,0.50799 v 6.32882 c 0,0.381 0.11642,0.508 0.508,0.508 h 0.39158 c 0.40217,0 0.508,-0.13759 0.508,-0.508 z"
         style="font-family:'Latin Modern Sans';-inkscape-font-specification:'Latin Modern Sans';fill:#3a3a3a"
         id="path1475" />
      <path
         d="m 148.76259,195.23757 c 0,-1.36525 -0.635,-2.27541 -2.21191,-2.27541 -1.69333,0 -2.52941,0.9525 -2.52941,2.56116 0,1.73566 1.00541,2.58232 2.66699,2.58232 0.40217,0 1.00541,-0.0529 1.70391,-0.40216 0.23284,-0.11642 0.30692,-0.14817 0.30692,-0.27517 0,-0.0741 -0.0318,-0.381 -0.0423,-0.46566 -0.0423,-0.32809 -0.0529,-0.33867 -0.14817,-0.33867 -0.0423,0 -0.0635,0 -0.17992,0.10583 -0.62441,0.53975 -1.25941,0.61383 -1.59808,0.61383 -1.19591,0 -1.32291,-0.94191 -1.35466,-1.61924 h 2.87866 c 0.24342,0 0.508,-0.0106 0.508,-0.48683 z m -1.17475,-0.0741 h -2.20132 c 0.0318,-0.64559 0.24341,-1.43933 1.16416,-1.43933 0.84666,0 1.00541,0.61383 1.03716,1.43933 z"
         style="font-family:'Latin Modern Sans';-inkscape-font-specification:'Latin Modern Sans';fill:#3a3a3a"
         id="path1477" />
      <path
         d="m 153.93782,197.46006 c 0,-0.11642 -0.0423,-0.60325 -0.0635,-0.74083 0,-0.0318 -0.0212,-0.13758 -0.127,-0.13758 -0.0423,0 -0.0635,0 -0.16933,0.10583 -0.17992,0.15875 -0.67733,0.59267 -1.54516,0.59267 -1.10067,0 -1.10067,-1.06892 -1.10067,-1.74625 0,-0.85725 0.0529,-1.74624 1.13242,-1.74624 0.68791,0 0.97366,0.16933 1.35466,0.48683 0.127,0.11641 0.14816,0.11641 0.1905,0.11641 0.10583,0 0.127,-0.0952 0.13758,-0.13758 0.0212,-0.0847 0.127,-0.67733 0.127,-0.73025 0,-0.0952 -0.0741,-0.13758 -0.254,-0.22225 -0.508,-0.23283 -0.8255,-0.33866 -1.56633,-0.33866 -1.57691,0 -2.56116,0.74083 -2.56116,2.59291 0,1.75682 0.91017,2.55057 2.50825,2.55057 0.28574,0 0.92074,-0.0106 1.62982,-0.37041 0.29634,-0.15875 0.30692,-0.16934 0.30692,-0.27517 z"
         style="font-family:'Latin Modern Sans';-inkscape-font-specification:'Latin Modern Sans';fill:#3a3a3a"
         id="path1479" />
      <path
         d="m 158.22406,197.49181 c 0,-0.0317 -0.0212,-0.10583 -0.0847,-0.32808 -0.0529,-0.21167 -0.0741,-0.27517 -0.16933,-0.27517 -0.0529,0 -0.0635,0.0106 -0.127,0.0741 -0.11642,0.0847 -0.40216,0.3175 -0.84666,0.3175 -0.254,0 -0.41275,-0.17992 -0.41275,-0.87842 v -2.49766 h 0.94191 c 0.127,0 0.508,0 0.508,-0.381 0,-0.381 -0.381,-0.381 -0.508,-0.381 h -0.94191 v -0.87841 c 0,-0.33866 -0.0741,-0.508 -0.508,-0.508 h -0.32808 c -0.381,0 -0.508,0.11642 -0.508,0.508 v 0.87841 h -0.24342 c -0.11641,0 -0.50799,0 -0.50799,0.381 0,0.381 0.38099,0.381 0.50799,0.381 h 0.21167 v 2.67758 c 0,1.06891 0.381,1.52399 1.11125,1.52399 0.0952,0 0.56091,0 1.11124,-0.16933 0.17992,-0.0529 0.79375,-0.24342 0.79375,-0.4445 z"
         style="font-family:'Latin Modern Sans';-inkscape-font-specification:'Latin Modern Sans';fill:#3a3a3a"
         id="path1481" />
      <path
         d="m 160.6053,197.48123 v -3.83116 c 0,-0.33866 -0.0741,-0.508 -0.508,-0.508 h -0.39158 c -0.381,0 -0.508,0.11642 -0.508,0.508 v 3.83116 c 0,0.381 0.11641,0.508 0.508,0.508 h 0.39158 c 0.40216,0 0.508,-0.13759 0.508,-0.508 z m 0.0741,-5.90548 v -0.20109 c 0,-0.33866 -0.0741,-0.50799 -0.508,-0.50799 h -0.53975 c -0.40216,0 -0.508,0.13758 -0.508,0.50799 v 0.20109 c 0,0.30691 0.0529,0.50799 0.508,0.50799 h 0.53975 c 0.4445,0 0.508,-0.19049 0.508,-0.50799 z"
         style="font-family:'Latin Modern Sans';-inkscape-font-specification:'Latin Modern Sans';fill:#3a3a3a"
         id="path1483" />
      <path
         d="m 166.26736,193.43841 c 0,-0.29634 -0.26458,-0.29634 -0.42333,-0.29634 h -0.22225 c -0.4445,0 -0.56091,0.15875 -0.65616,0.45509 l -1.04775,3.19615 -1.04775,-3.19615 c -0.0741,-0.22225 -0.14816,-0.45509 -0.65616,-0.45509 h -0.254 c -0.15875,0 -0.42333,0 -0.42333,0.29634 0,0.0317 0,0.0529 0.0529,0.20108 l 1.25941,3.90524 c 0.14816,0.4445 0.47625,0.4445 0.66675,0.4445 h 0.77258 c 0.1905,0 0.51858,0 0.66674,-0.4445 l 1.25942,-3.90524 c 0.0529,-0.14817 0.0529,-0.16933 0.0529,-0.20108 z"
         style="font-family:'Latin Modern Sans';-inkscape-font-specification:'Latin Modern Sans';fill:#3a3a3a"
         id="path1485" />
      <path
         d="m 171.62252,195.23757 c 0,-1.36525 -0.635,-2.27541 -2.21191,-2.27541 -1.69333,0 -2.52941,0.9525 -2.52941,2.56116 0,1.73566 1.00541,2.58232 2.66699,2.58232 0.40217,0 1.00541,-0.0529 1.70391,-0.40216 0.23283,-0.11642 0.30692,-0.14817 0.30692,-0.27517 0,-0.0741 -0.0318,-0.381 -0.0423,-0.46566 -0.0423,-0.32809 -0.0529,-0.33867 -0.14816,-0.33867 -0.0423,0 -0.0635,0 -0.17992,0.10583 -0.62441,0.53975 -1.25941,0.61383 -1.59808,0.61383 -1.19591,0 -1.32291,-0.94191 -1.35466,-1.61924 h 2.87866 c 0.24341,0 0.508,-0.0106 0.508,-0.48683 z m -1.17475,-0.0741 h -2.20133 c 0.0317,-0.64559 0.24342,-1.43933 1.16417,-1.43933 0.84666,0 1.00541,0.61383 1.03716,1.43933 z"
         style="font-family:'Latin Modern Sans';-inkscape-font-specification:'Latin Modern Sans';fill:#3a3a3a"
         id="path1487" />
    </g>
  </g>
</svg>
